<?xml version="1.0" encoding="UTF-8"?>
<svg xmlns="http://www.w3.org/2000/svg" xmlns:xlink="http://www.w3.org/1999/xlink" width="1680pt" height="2376pt" viewBox="0 0 1680 2376" version="1.1">
<g id="surface431">
<rect x="0" y="0" width="1680" height="2376" style="fill:rgb(67.843137%,81.960784%,61.960784%);fill-opacity:1;stroke:none;"/>
<rect x="0" y="0" width="1680" height="2376" style="fill:rgb(67.843137%,81.960784%,61.960784%);fill-opacity:1;stroke:none;"/>
<path style="fill:none;stroke-width:0.75;stroke-linecap:round;stroke-linejoin:round;stroke:rgb(67.843137%,81.960784%,61.960784%);stroke-opacity:1;stroke-miterlimit:10;" d="M 0 2376 L 1680 2376 L 1680 0 L 0 0 Z M 0 2376 "/>
<path style="fill-rule:evenodd;fill:rgb(82.745098%,90.588235%,79.607843%);fill-opacity:1;stroke-width:0.75;stroke-linecap:round;stroke-linejoin:round;stroke:rgb(82.745098%,90.588235%,79.607843%);stroke-opacity:1;stroke-miterlimit:10;" d="M 1511.765625 -2107.253906 L 1222.207031 -2682.171875 L 778.101563 -2508.296875 L 782.847656 -2237.621094 L 623.707031 -1913.355469 L 614.167969 -1697.953125 L 696.875 -1498.769531 L 547.324219 -1306.503906 L -144.609375 -808.757813 L -423.492188 -407.816406 L -888.160156 -252.628906 L -1161.902344 -2.472656 L -1566.109375 78.605469 L -1941.691406 259.304688 L -2142.210938 402.921875 L -2002.152344 574.324219 L -1932.148438 583.570313 L -1913.066406 694.753906 L -1976.691406 803.617188 L -2126.292969 912.480469 L -2374.570313 1012.097656 L -2836.078125 1294.6875 L -3373.964844 1350.304688 L -3845.0625 1660.679688 L -4564.386719 2098.503906 L -4882.667969 2256.011719 L -5035.433594 2383.414063 L -5204.117188 2656.808594 L -5471.628906 3107.734375 L -5692.664063 3535.226563 L -5821.945313 3658.082031 L -6176.367188 3790.082031 L -6349.945313 3893.851563 L -6283.5 4399.652344 L -6758.453125 5115.371094 L -7249.078125 5437.214844 L -7285.664063 5526.746094 L -6807.941406 5410.21875 L -6253.988281 5356.875 L -4743.699219 5211.480469 L -4354.472656 5034.242188 L -4194.886719 4750.515625 L -4259.601563 4507.035156 L -3733.726563 4289.210938 L -3903.546875 3898.101563 L -4532.101563 3655.757813 L -3775.203125 3217.140625 L -2814.027344 3054.785156 L -2206.332031 2759.492188 L -2650.089844 2288.199219 L -2834 2248.101563 L -3118.714844 2185.859375 L -3086.679688 2014.65625 L -2674.464844 1667.453125 L -2128.765625 1769.640625 L -1474.597656 1671.109375 L -1173.667969 1719.066406 L -851.527344 1770.382813 L -718.886719 1202.289063 L -567.554688 1114.238281 L -80.933594 681.160156 L 322.53125 107.480469 L 803.265625 -467.785156 L 999.339844 -1404.441406 L 2134.984375 -1060.648438 L 2710.542969 -1086.40625 L 2343.8125 -610.90625 L 2346.136719 -392.835938 L 2668.371094 -257.027344 L 2963.519531 -347.699219 L 3342.019531 -805.101563 L 3619.761719 -873.175781 L 4423.675781 -889.738281 L 4449.53125 -378.351563 L 4586.277344 -309.929688 L 4882.265625 -378.351563 L 5550.421875 -596.917969 L 6580.269531 -760.558594 L 7602.355469 -968.542969 L 8069.59375 -1022.628906 L 7691.144531 -721.054688 L 6742.722656 -340.976563 L 5827.769531 -201.953125 L 4941.988281 -94.722656 L 4086.707031 11.964844 L 3648.140625 176.789063 L 2918.382813 534.625 L 2274.894531 1073.15625 L 2862.171875 972.003906 L 3796.355469 699.007813 L 4852.800781 436.835938 L 5059.203125 414.785156 L 5177.660156 483.605469 L 5175.335938 581.542969 L 4788.777344 829.917969 L 3443.710938 1351.738281 L 2918.429688 1638.578125 L 2854.902344 1728.902344 L 2896.234375 1852.695313 L 3036.984375 1867.628906 L 3391.851563 1744.574219 L 4730.046875 1360.835938 L 5918.339844 882.324219 L 7027.933594 258.5625 L 7648.976563 -74.75 L 7706.867188 320.261719 L 8534.757813 -181.933594 L 8812.007813 -263.308594 L 8199.46875 -500.019531 L 8482.898438 -737.320313 L 9634.464844 -1223.941406 L 10219.8125 -1416.207031 L 10460.277344 -1966.699219 L 9926.890625 -2387.765625 L 9668.527344 -2239.550781 L 9104.882813 -1996.511719 L 8252.617188 -1809.832031 L 7796.597656 -1622.414063 L 7581.441406 -1511.175781 L 7003.113281 -1334.585938 L 6056.769531 -1217.167969 L 5513.691406 -1232.691406 L 5068.746094 -1232.445313 L 4883.996094 -1319.902344 L 4683.722656 -1415.910156 L 4054.421875 -1454.175781 L 4410.824219 -2267.234375 L 4172.828125 -2698.535156 L 3941.011719 -2495.691406 L 3582.289063 -2314.695313 L 2959.960938 -2172.757813 L 2370.308594 -1973.621094 L 1588.988281 -1530.160156 Z M 1511.765625 -2107.253906 "/>
<path style="fill-rule:evenodd;fill:rgb(82.745098%,90.588235%,79.607843%);fill-opacity:1;stroke-width:0.75;stroke-linecap:round;stroke-linejoin:round;stroke:rgb(82.745098%,90.588235%,79.607843%);stroke-opacity:1;stroke-miterlimit:10;" d="M -2250.679688 7594.746094 L -2286.867188 6662.886719 L -2070.277344 6262.238281 L -1254.5 5341.402344 L -362.929688 4390.113281 L 292.273438 4078.847656 L 835.007813 3820.980469 L 948.417969 3646.808594 L 1308.921875 3198.699219 L 1829.109375 2782.828125 L 2403.136719 2807.199219 L 1891.996094 2557.734375 L 1294.484375 2437.75 L 1001.367188 2375.949219 L 487.902344 2543.101563 L 402.273438 2474.53125 L 482.167969 2254.875 L 277.640625 2261.402344 L 96.351563 2331.210938 L -118.113281 2225.015625 L -342.066406 2462.960938 L -231.574219 2573.949219 L -306.917969 2744.957031 L -589.902344 2915.964844 L -1068.066406 2994.472656 L -1265.917969 3134.777344 L -1722.925781 3426.710938 L -2365.722656 3676.964844 L -2390.785156 3918.769531 L -3161.183594 4849.246094 L -3166.71875 5490.359375 L -3569.097656 6268.8125 L -4045.582031 7022.101563 L -4271.859375 7627.769531 L -4506.445313 8019.914063 L -4820.625 8244.5625 L -5272.441406 8378.589844 L -5953.304688 8419.472656 L -6369.574219 8370.234375 L -6863.410156 8206.890625 L -7010.835938 8243.722656 L -7133.34375 7413.503906 L -6473.789063 7455.429688 L -5678.328125 7015.972656 L -4954.699219 6718.257813 L -4869.816406 6401.308594 L -4976.699219 6153.375 L -5188.988281 6159.605469 L -5250.785156 6330.066406 L -5461.839844 6339.460938 L -5693.503906 6127.71875 L -5829.953125 5886.011719 L -5867.183594 6142.945313 L -6424.5 6078.328125 L -6483.527344 6198.363281 L -6941.472656 6323.292969 L -7116.484375 6547.644531 L -7310.578125 6711.085938 L -7394.277344 6802.5 L -7405.699219 6979.785156 L -7443.765625 7301.082031 L -7694.914063 7290.007813 L -7987.933594 7353.734375 L -8322.828125 7312.15625 L -8570.167969 7309.390625 L -8832.734375 7306.621094 L -8638.6875 7589.160156 L -8543.519531 8090.5625 L -8657.722656 8400.835938 L -8581.585938 8630.773438 L -9019.214844 8749.871094 L -8387.492188 8935.460938 L -8254.304688 9129.40625 L -8319.019531 9273.421875 L -8585.394531 9594.769531 L -8807.765625 9869.695313 L -8827.886719 10087.421875 L -9042.054688 10284.578125 L -9411.40625 10374.605469 L -9205.695313 10536.664063 L -8791.304688 10486.140625 L -8197.796875 10655.5625 L -7774.855469 10639.199219 L -7369.511719 10414.257813 L -7097.5 10323.390625 L -6983.300781 10345.535156 L -6899.601563 10198.707031 L -6855.054688 10009.949219 L -6880.566406 9852.441406 L -7025.171875 9736.0625 L -7171.90625 9417.484375 L -6874.484375 9215.972656 L -6404.03125 9376.945313 L -6226.054688 9475.671875 L -6313.558594 9639.113281 L -6492.425781 9758.210938 L -6507.652344 9816.398438 L -6454.359375 9943.851563 L -6602.328125 10154.0625 L -6918.632813 10819.253906 L -6930.054688 11090.769531 L -7040.546875 11478.019531 L -7134.480469 11568.984375 L -7325.808594 11567.253906 L -7379.101563 11838.769531 L -7312.804688 11995.585938 L -7076.785156 11955.046875 L -6968.417969 11921.628906 L -6816.050781 11922.914063 L -6646.277344 11901.605469 L -6397.902344 11865.265625 L -6036.605469 11755.367188 L -5754.464844 11647.097656 L -5568.675781 11411.769531 L -5533.621094 11308.394531 L -5622.660156 11124.980469 L -5257.164063 10492.566406 L -5175.195313 10250.664063 L -5168.816406 9787.578125 L -5084.03125 9305.0625 L -5034.9375 9157.140625 L -4959.25 9066.519531 L -4832.09375 9046.054688 L -4728.472656 9204.15625 L -4670.925781 9429.992188 L -4593.753906 9691.023438 L -4564.535156 9815.066406 L -4506.097656 9907.367188 L -4381.265625 9984.886719 L -4277.25 9996.058594 L -4107.773438 9965.851563 L -3995.054688 9887.839844 L -3868.890625 9684.894531 L -3726.210938 9437.109375 L -3569.589844 9233.523438 L -3427.652344 9123.769531 L -3284.136719 9054.011719 L -3007.183594 8968.140625 L -3042.332031 9160.257813 L -2184.875 8804.203125 L -2058.5625 8761.488281 L -1910.890625 8885.628906 L -1234.871094 8377.203125 L -1413.589844 8227.308594 L -1889.335938 7925.683594 Z M -2250.679688 7594.746094 "/>
<path style="fill-rule:evenodd;fill:rgb(94.509804%,86.666667%,79.607843%);fill-opacity:1;stroke-width:0.75;stroke-linecap:round;stroke-linejoin:round;stroke:rgb(94.509804%,86.666667%,79.607843%);stroke-opacity:1;stroke-miterlimit:10;" d="M 501.347656 1938.917969 L 511.335938 2040.859375 L 744.882813 2126.4375 L 903.378906 2116.648438 L 1019.511719 1971.445313 L 1043.339844 1839.25 L 1213.0625 1700.527344 L 1043.339844 1579.15625 L 1099.898438 1498.964844 L 943.027344 1429.109375 L 775.335938 1375.421875 L 644.273438 1371.070313 L 560.871094 1440.429688 L 775.335938 1618.160156 L 722.683594 1668.738281 L 726.046875 1724.949219 Z M 501.347656 1938.917969 "/>
<path style="fill-rule:evenodd;fill:rgb(94.509804%,86.666667%,79.607843%);fill-opacity:1;stroke-width:0.75;stroke-linecap:round;stroke-linejoin:round;stroke:rgb(94.509804%,86.666667%,79.607843%);stroke-opacity:1;stroke-miterlimit:10;" d="M 751.503906 1173.859375 L 1010.5625 1305.070313 L 1260.71875 1310.902344 L 1204.160156 1069.84375 L 1073.101563 1035.136719 L 1159.46875 846.578125 L 1388.765625 820.574219 L 1317.324219 686.203125 L 1427.472656 454.335938 L 1251.769531 166.0625 L 1055.253906 137.882813 L 784.234375 231.074219 L 563.886719 369.796875 L 355.40625 486.816406 L 200.566406 731.734375 L 197.601563 842.277344 Z M 751.503906 1173.859375 "/>
<path style="fill:none;stroke-width:15;stroke-linecap:round;stroke-linejoin:round;stroke:rgb(66.666667%,82.745098%,87.45098%);stroke-opacity:1;stroke-miterlimit:10;" d="M 1680 1864.824219 L 1630.320313 1821.402344 L 1536.980469 1744.574219 L 1507.859375 1720.597656 L 1333.246094 1562.839844 L 1248.953125 1495.652344 L 1156.601563 1431.382813 L 1054.214844 1379.671875 L 911.140625 1324.152344 L 805.34375 1272.144531 L 626.722656 1225.425781 L 478.160156 1180.140625 L 355.753906 1130.453125 L 217.226563 1074.933594 L 130.957031 1013.582031 L 76.722656 921.578125 L 2.46875 812.023438 L 0 806.902344 "/>
<path style="fill:none;stroke-width:15;stroke-linecap:round;stroke-linejoin:round;stroke:rgb(66.666667%,82.745098%,87.45098%);stroke-opacity:1;stroke-miterlimit:10;" d="M 0 412.421875 L 56.652344 392.785156 L 221.28125 346.019531 L 383.832031 316.800781 L 526.363281 280.316406 L 571.796875 268.003906 L 713.042969 151.773438 L 835.453125 39.304688 L 868.140625 0 "/>
<path style="fill:none;stroke-width:15;stroke-linecap:round;stroke-linejoin:round;stroke:rgb(66.666667%,82.745098%,87.45098%);stroke-opacity:1;stroke-miterlimit:10;" d="M 461.542969 2376 L 465.851563 2368.683594 L 492.796875 2328.539063 L 537.191406 2305.054688 L 641.0625 2231.097656 L 675.371094 2167.46875 L 756.101563 2131.726563 L 818 2126.832031 L 894.679688 2130.242188 L 970.664063 2126.335938 L 1071.570313 2099.394531 L 1150.964844 2074.921875 L 1258.59375 2033.292969 L 1307.042969 1977.480469 L 1351.4375 1944.699219 L 1379.71875 1904.0625 L 1425.445313 1863.425781 L 1475.230469 1839.445313 L 1522.988281 1775.769531 L 1536.980469 1744.574219 "/>
<path style="fill:none;stroke-width:0.5625;stroke-linecap:round;stroke-linejoin:round;stroke:rgb(68.627451%,53.72549%,22.745098%);stroke-opacity:1;stroke-miterlimit:10;" d="M 806.28125 524.785156 L 882.765625 485.484375 L 947.082031 459.726563 L 1032.214844 456.757813 L 1156.949219 447.859375 L 1234.171875 441.929688 L 1322.269531 400.351563 L 1411.355469 357.785156 L 1491.546875 328.070313 L 1559.820313 299.347656 L 1586.566406 259.75 L 1592.5 190.484375 L 1639.019531 100.410156 L 1680 64.980469 "/>
<path style="fill:none;stroke-width:0.5625;stroke-linecap:round;stroke-linejoin:round;stroke:rgb(68.627451%,53.72549%,22.745098%);stroke-opacity:1;stroke-miterlimit:10;" d="M 1096.976563 2376 L 1048.480469 2309.851563 L 1002.652344 2266.496094 L 913.664063 2211.667969 L 866.101563 2172.957031 L 845.636719 2145.125 "/>
<path style="fill:none;stroke-width:0.5625;stroke-linecap:round;stroke-linejoin:round;stroke:rgb(68.627451%,53.72549%,22.745098%);stroke-opacity:1;stroke-miterlimit:10;" d="M 845.636719 2145.125 L 833.722656 2112.839844 "/>
<path style="fill:none;stroke-width:0.5625;stroke-linecap:round;stroke-linejoin:round;stroke:rgb(68.627451%,53.72549%,22.745098%);stroke-opacity:1;stroke-miterlimit:10;" d="M 833.722656 2112.839844 L 814.441406 2055.441406 L 818.789063 2038.980469 L 847.5625 2018.710938 L 903.773438 1996.265625 L 927.605469 1946.777344 L 918.410156 1880.382813 L 920.734375 1832.574219 L 930.175781 1799.105469 L 910.351563 1715.109375 L 860.46875 1668.09375 L 841.582031 1641.890625 L 840.394531 1612.082031 L 830.308594 1547.710938 L 828.28125 1519.976563 L 837.578125 1469.203125 L 850.925781 1448.242188 L 900.414063 1392.328125 "/>
<path style="fill:none;stroke-width:0.5625;stroke-linecap:round;stroke-linejoin:round;stroke:rgb(68.627451%,53.72549%,22.745098%);stroke-opacity:1;stroke-miterlimit:10;" d="M 900.414063 1392.328125 L 968.292969 1297.160156 "/>
<path style="fill:none;stroke-width:0.5625;stroke-linecap:round;stroke-linejoin:round;stroke:rgb(68.627451%,53.72549%,22.745098%);stroke-opacity:1;stroke-miterlimit:10;" d="M 968.292969 1297.160156 L 970.714844 1269.523438 L 951.53125 1203.769531 L 953.707031 1175.441406 L 965.769531 1146.273438 L 1003.839844 1123.1875 "/>
<path style="fill:none;stroke-width:0.5625;stroke-linecap:round;stroke-linejoin:round;stroke:rgb(68.627451%,53.72549%,22.745098%);stroke-opacity:1;stroke-miterlimit:10;" d="M 496.304688 1388.027344 L 407.8125 1360.785156 "/>
<path style="fill:none;stroke-width:0.5625;stroke-linecap:round;stroke-linejoin:round;stroke:rgb(68.627451%,53.72549%,22.745098%);stroke-opacity:1;stroke-miterlimit:10;" d="M 407.8125 1360.785156 L 367.371094 1359.351563 L 269.234375 1414.824219 L 261.917969 1426.390625 L 265.230469 1439.441406 L 354.121094 1520.027344 "/>
<path style="fill:none;stroke-width:0.5625;stroke-linecap:round;stroke-linejoin:round;stroke:rgb(68.627451%,53.72549%,22.745098%);stroke-opacity:1;stroke-miterlimit:10;" d="M 407.8125 1360.785156 L 261.277344 1208.320313 L 212.875 1177.421875 L 108.757813 1131.589844 "/>
<path style="fill:none;stroke-width:0.5625;stroke-linecap:round;stroke-linejoin:round;stroke:rgb(68.627451%,53.72549%,22.745098%);stroke-opacity:1;stroke-miterlimit:10;" d="M 287.132813 1197.691406 L 409.789063 1324.597656 L 496.304688 1388.027344 L 539.070313 1416.503906 L 576.199219 1438.453125 L 687.582031 1505.046875 L 719.765625 1506.53125 L 745.277344 1520.273438 L 791.699219 1533.027344 L 830.308594 1547.710938 "/>
<path style="fill:none;stroke-width:0.5625;stroke-linecap:round;stroke-linejoin:round;stroke:rgb(68.627451%,53.72549%,22.745098%);stroke-opacity:1;stroke-miterlimit:10;" d="M 860.46875 1668.09375 L 772.320313 1714.070313 L 753.730469 1735.773438 L 728.515625 1782.097656 L 707.308594 1844.835938 "/>
<path style="fill:none;stroke-width:0.5625;stroke-linecap:round;stroke-linejoin:round;stroke:rgb(68.627451%,53.72549%,22.745098%);stroke-opacity:1;stroke-miterlimit:10;" d="M 707.308594 1844.835938 L 735.191406 1929.769531 L 755.066406 1959.285156 L 786.902344 1972.335938 L 818.789063 2038.980469 "/>
<path style="fill:none;stroke-width:0.5625;stroke-linecap:round;stroke-linejoin:round;stroke:rgb(68.627451%,53.72549%,22.745098%);stroke-opacity:1;stroke-miterlimit:10;" d="M 707.308594 1844.835938 L 685.457031 1872.570313 L 657.277344 1911.183594 L 630.726563 1959.433594 L 627.117188 2032.898438 L 605.21875 2095.636719 "/>
<path style="fill:none;stroke-width:1.875;stroke-linecap:round;stroke-linejoin:round;stroke:rgb(96.862745%,98.039216%,76.862745%);stroke-opacity:1;stroke-miterlimit:10;" d="M 1003.839844 1123.1875 L 1022.328125 1156.308594 L 1054.511719 1181.425781 L 1110.179688 1201.199219 L 1126.789063 1213.609375 L 1133.613281 1236.648438 L 1139.644531 1261.414063 L 1134.355469 1289.445313 L 1140.929688 1330.28125 L 1151.460938 1350.75 L 1215.234375 1394.40625 L 1381.152344 1512.316406 L 1498.171875 1611.140625 L 1637.785156 1737.210938 L 1680 1767.769531 "/>
<path style="fill:none;stroke-width:1.875;stroke-linecap:round;stroke-linejoin:round;stroke:rgb(96.862745%,98.039216%,76.862745%);stroke-opacity:1;stroke-miterlimit:10;" d="M 806.28125 524.785156 L 816.21875 565.621094 L 858.835938 621.832031 L 879.699219 661.730469 L 886.078125 693.46875 L 896.953125 761.496094 L 937.738281 852.167969 L 995.78125 954.652344 L 995.78125 1023.519531 L 1003.839844 1123.1875 "/>
<path style="fill:none;stroke-width:1.875;stroke-linecap:round;stroke-linejoin:round;stroke:rgb(96.862745%,98.039216%,76.862745%);stroke-opacity:1;stroke-miterlimit:10;" d="M 425.59375 0 L 440.835938 38.757813 L 448.101563 96.800781 L 470.746094 135.808594 L 514.300781 181.140625 "/>
<path style="fill:none;stroke-width:1.875;stroke-linecap:round;stroke-linejoin:round;stroke:rgb(96.862745%,98.039216%,76.862745%);stroke-opacity:1;stroke-miterlimit:10;" d="M 514.300781 181.140625 L 624.351563 270.03125 "/>
<path style="fill:none;stroke-width:1.875;stroke-linecap:round;stroke-linejoin:round;stroke:rgb(96.862745%,98.039216%,76.862745%);stroke-opacity:1;stroke-miterlimit:10;" d="M 624.351563 270.03125 L 748.242188 391.5 L 791.75 456.808594 L 806.28125 524.785156 "/>
<path style="fill:none;stroke-width:1.875;stroke-linecap:round;stroke-linejoin:round;stroke:rgb(96.862745%,98.039216%,76.862745%);stroke-opacity:1;stroke-miterlimit:10;" d="M 496.304688 1388.027344 L 407.8125 1360.785156 "/>
<path style="fill:none;stroke-width:1.875;stroke-linecap:round;stroke-linejoin:round;stroke:rgb(96.862745%,98.039216%,76.862745%);stroke-opacity:1;stroke-miterlimit:10;" d="M 407.8125 1360.785156 L 367.371094 1359.351563 L 269.234375 1414.824219 L 261.917969 1426.390625 L 265.230469 1439.441406 L 354.121094 1520.027344 "/>
<path style="fill:none;stroke-width:1.875;stroke-linecap:round;stroke-linejoin:round;stroke:rgb(96.862745%,98.039216%,76.862745%);stroke-opacity:1;stroke-miterlimit:10;" d="M 407.8125 1360.785156 L 261.277344 1208.320313 L 212.875 1177.421875 L 108.757813 1131.589844 "/>
<path style="fill:none;stroke-width:1.875;stroke-linecap:round;stroke-linejoin:round;stroke:rgb(96.862745%,98.039216%,76.862745%);stroke-opacity:1;stroke-miterlimit:10;" d="M 287.132813 1197.691406 L 409.789063 1324.597656 L 496.304688 1388.027344 L 539.070313 1416.503906 L 576.199219 1438.453125 L 687.582031 1505.046875 L 719.765625 1506.53125 L 745.277344 1520.273438 L 791.699219 1533.027344 L 830.308594 1547.710938 "/>
<path style="fill:none;stroke-width:1.875;stroke-linecap:round;stroke-linejoin:round;stroke:rgb(96.862745%,98.039216%,76.862745%);stroke-opacity:1;stroke-miterlimit:10;" d="M 860.46875 1668.09375 L 772.320313 1714.070313 L 753.730469 1735.773438 L 728.515625 1782.097656 L 707.308594 1844.835938 "/>
<path style="fill:none;stroke-width:1.875;stroke-linecap:round;stroke-linejoin:round;stroke:rgb(96.862745%,98.039216%,76.862745%);stroke-opacity:1;stroke-miterlimit:10;" d="M 707.308594 1844.835938 L 735.191406 1929.769531 L 755.066406 1959.285156 L 786.902344 1972.335938 L 818.789063 2038.980469 "/>
<path style="fill:none;stroke-width:1.875;stroke-linecap:round;stroke-linejoin:round;stroke:rgb(96.862745%,98.039216%,76.862745%);stroke-opacity:1;stroke-miterlimit:10;" d="M 707.308594 1844.835938 L 685.457031 1872.570313 L 657.277344 1911.183594 L 630.726563 1959.433594 L 627.117188 2032.898438 L 605.21875 2095.636719 "/>
<path style="fill-rule:evenodd;fill:rgb(81.568627%,56.078431%,33.333333%);fill-opacity:1;stroke-width:1.5;stroke-linecap:round;stroke-linejoin:round;stroke:rgb(81.568627%,56.078431%,33.333333%);stroke-opacity:1;stroke-miterlimit:10;" d="M 1084.667969 1209.605469 L 975.214844 1232.839844 L 994.988281 1282.128906 L 1065.4375 1267.152344 L 1071.617188 1281.933594 L 1110.378906 1273.726563 L 1104.394531 1258.894531 L 1115.667969 1256.519531 L 1102.515625 1223.695313 L 1091.246094 1226.066406 Z M 1084.667969 1209.605469 "/>
<path style="fill-rule:evenodd;fill:rgb(81.568627%,56.078431%,33.333333%);fill-opacity:1;stroke-width:1.5;stroke-linecap:round;stroke-linejoin:round;stroke:rgb(81.568627%,56.078431%,33.333333%);stroke-opacity:1;stroke-miterlimit:10;" d="M 785.46875 525.082031 L 772.515625 522.5625 L 781.367188 498.535156 L 730.59375 488.648438 L 721.742188 512.675781 L 688.71875 506.246094 L 682.191406 523.996094 L 662.566406 520.1875 L 639.28125 583.46875 L 690.398438 593.457031 L 694.355469 582.726563 L 759.613281 595.433594 Z M 785.46875 525.082031 "/>
<path style="fill-rule:evenodd;fill:rgb(81.568627%,56.078431%,33.333333%);fill-opacity:1;stroke-width:1.5;stroke-linecap:round;stroke-linejoin:round;stroke:rgb(81.568627%,56.078431%,33.333333%);stroke-opacity:1;stroke-miterlimit:10;" d="M 849.738281 333.609375 L 820.125 354.027344 L 857.699219 382.800781 L 887.261719 362.382813 Z M 849.738281 333.609375 "/>
<path style="fill-rule:evenodd;fill:rgb(81.568627%,56.078431%,33.333333%);fill-opacity:1;stroke-width:1.5;stroke-linecap:round;stroke-linejoin:round;stroke:rgb(81.568627%,56.078431%,33.333333%);stroke-opacity:1;stroke-miterlimit:10;" d="M 1146.269531 1195.265625 L 1179.691406 1288.507813 L 1226.457031 1279.609375 L 1193.039063 1186.367188 Z M 1146.269531 1195.265625 "/>
<path style="fill-rule:evenodd;fill:rgb(81.568627%,56.078431%,33.333333%);fill-opacity:1;stroke-width:1.5;stroke-linecap:round;stroke-linejoin:round;stroke:rgb(81.568627%,56.078431%,33.333333%);stroke-opacity:1;stroke-miterlimit:10;" d="M 1007.445313 956.628906 L 1089.019531 960.683594 L 1092.679688 921.773438 L 1011.105469 917.722656 Z M 1007.445313 956.628906 "/>
<path style="fill-rule:evenodd;fill:rgb(81.568627%,56.078431%,33.333333%);fill-opacity:1;stroke-width:1.5;stroke-linecap:round;stroke-linejoin:round;stroke:rgb(81.568627%,56.078431%,33.333333%);stroke-opacity:1;stroke-miterlimit:10;" d="M 1038.050781 1132.53125 L 1059.0625 1172.03125 L 1105.382813 1158.980469 L 1088.476563 1127.191406 Z M 1038.050781 1132.53125 "/>
<path style="fill-rule:evenodd;fill:rgb(81.568627%,56.078431%,33.333333%);fill-opacity:1;stroke-width:1.5;stroke-linecap:round;stroke-linejoin:round;stroke:rgb(81.568627%,56.078431%,33.333333%);stroke-opacity:1;stroke-miterlimit:10;" d="M 846.722656 525.082031 L 866.25 562.902344 L 922.363281 547.527344 L 902.835938 509.757813 Z M 846.722656 525.082031 "/>
<path style="fill-rule:evenodd;fill:rgb(81.568627%,56.078431%,33.333333%);fill-opacity:1;stroke-width:1.5;stroke-linecap:round;stroke-linejoin:round;stroke:rgb(81.568627%,56.078431%,33.333333%);stroke-opacity:1;stroke-miterlimit:10;" d="M 780.328125 388.882813 L 810.335938 424.128906 L 863.878906 399.953125 L 833.820313 364.707031 Z M 780.328125 388.882813 "/>
<path style="fill-rule:evenodd;fill:rgb(81.568627%,56.078431%,33.333333%);fill-opacity:1;stroke-width:1.5;stroke-linecap:round;stroke-linejoin:round;stroke:rgb(81.568627%,56.078431%,33.333333%);stroke-opacity:1;stroke-miterlimit:10;" d="M 1077.75 1042.355469 L 1076.414063 1015.953125 L 1021.535156 1017.390625 L 1022.824219 1043.789063 Z M 1077.75 1042.355469 "/>
<path style="fill-rule:evenodd;fill:rgb(81.568627%,56.078431%,33.333333%);fill-opacity:1;stroke-width:1.5;stroke-linecap:round;stroke-linejoin:round;stroke:rgb(81.568627%,56.078431%,33.333333%);stroke-opacity:1;stroke-miterlimit:10;" d="M 828.035156 252.679688 L 825.070313 278.289063 L 862.445313 280.609375 L 865.460938 255.003906 Z M 828.035156 252.679688 "/>
<path style="fill-rule:evenodd;fill:rgb(81.568627%,56.078431%,33.333333%);fill-opacity:1;stroke-width:1.5;stroke-linecap:round;stroke-linejoin:round;stroke:rgb(81.568627%,56.078431%,33.333333%);stroke-opacity:1;stroke-miterlimit:10;" d="M 707.503906 317.542969 L 759.613281 354.570313 L 794.21875 328.8125 L 742.113281 291.734375 Z M 707.503906 317.542969 "/>
<path style="fill-rule:evenodd;fill:rgb(81.568627%,56.078431%,33.333333%);fill-opacity:1;stroke-width:1.5;stroke-linecap:round;stroke-linejoin:round;stroke:rgb(81.568627%,56.078431%,33.333333%);stroke-opacity:1;stroke-miterlimit:10;" d="M 1024.949219 1097.378906 L 1080.914063 1091.496094 L 1077.699219 1068.902344 L 1021.4375 1073.203125 Z M 1024.949219 1097.378906 "/>
<path style="fill-rule:evenodd;fill:rgb(81.568627%,56.078431%,33.333333%);fill-opacity:1;stroke-width:1.5;stroke-linecap:round;stroke-linejoin:round;stroke:rgb(81.568627%,56.078431%,33.333333%);stroke-opacity:1;stroke-miterlimit:10;" d="M 1125.160156 1068.160156 L 1128.371094 1102.371094 L 1198.773438 1098.914063 L 1195.609375 1064.699219 Z M 1125.160156 1068.160156 "/>
<path style="fill-rule:evenodd;fill:rgb(81.568627%,56.078431%,33.333333%);fill-opacity:1;stroke-width:1.5;stroke-linecap:round;stroke-linejoin:round;stroke:rgb(81.568627%,56.078431%,33.333333%);stroke-opacity:1;stroke-miterlimit:10;" d="M 777.90625 941.007813 L 810.1875 924.839844 L 772.320313 892.507813 L 743.003906 909.910156 L 748.835938 915.101563 Z M 777.90625 941.007813 "/>
<path style="fill-rule:evenodd;fill:rgb(81.568627%,56.078431%,33.333333%);fill-opacity:1;stroke-width:1.5;stroke-linecap:round;stroke-linejoin:round;stroke:rgb(81.568627%,56.078431%,33.333333%);stroke-opacity:1;stroke-miterlimit:10;" d="M 1021.535156 1017.390625 L 1076.414063 1015.953125 L 1082.050781 1015.808594 L 1080.21875 978.578125 L 1019.660156 980.210938 Z M 1021.535156 1017.390625 "/>
<path style="fill-rule:evenodd;fill:rgb(81.568627%,56.078431%,33.333333%);fill-opacity:1;stroke-width:1.5;stroke-linecap:round;stroke-linejoin:round;stroke:rgb(81.568627%,56.078431%,33.333333%);stroke-opacity:1;stroke-miterlimit:10;" d="M 849.738281 333.609375 L 887.261719 362.382813 L 892.40625 366.335938 L 931.410156 339.394531 L 888.695313 306.664063 Z M 849.738281 333.609375 "/>
<path style="fill-rule:evenodd;fill:rgb(81.568627%,56.078431%,33.333333%);fill-opacity:1;stroke-width:1.5;stroke-linecap:round;stroke-linejoin:round;stroke:rgb(81.568627%,56.078431%,33.333333%);stroke-opacity:1;stroke-miterlimit:10;" d="M 1021.4375 1073.203125 L 1077.699219 1068.902344 L 1081.503906 1068.65625 L 1077.75 1042.355469 L 1022.824219 1043.789063 L 1016.394531 1044.085938 Z M 1021.4375 1073.203125 "/>
<path style="fill-rule:evenodd;fill:rgb(81.568627%,56.078431%,33.333333%);fill-opacity:1;stroke-width:1.5;stroke-linecap:round;stroke-linejoin:round;stroke:rgb(81.568627%,56.078431%,33.333333%);stroke-opacity:1;stroke-miterlimit:10;" d="M 1024.949219 1097.378906 L 1032.066406 1133.171875 L 1038.050781 1132.53125 L 1088.476563 1127.191406 L 1108.84375 1125.066406 L 1101.726563 1089.320313 L 1080.914063 1091.496094 Z M 1024.949219 1097.378906 "/>
<path style="fill-rule:evenodd;fill:rgb(81.568627%,56.078431%,33.333333%);fill-opacity:1;stroke-width:1.5;stroke-linecap:round;stroke-linejoin:round;stroke:rgb(81.568627%,56.078431%,33.333333%);stroke-opacity:1;stroke-miterlimit:10;" d="M 1002.40625 1886.5625 L 1034.292969 1882.261719 L 1027.023438 1853.785156 L 998.5 1871.285156 Z M 1002.40625 1886.5625 "/>
<path style="fill-rule:evenodd;fill:rgb(81.568627%,56.078431%,33.333333%);fill-opacity:1;stroke-width:1.5;stroke-linecap:round;stroke-linejoin:round;stroke:rgb(81.568627%,56.078431%,33.333333%);stroke-opacity:1;stroke-miterlimit:10;" d="M 298.847656 2238.808594 L 349.917969 2195.847656 L 300.628906 2164.847656 L 249.609375 2207.8125 Z M 298.847656 2238.808594 "/>
<path style="fill-rule:evenodd;fill:rgb(81.568627%,56.078431%,33.333333%);fill-opacity:1;stroke-width:1.5;stroke-linecap:round;stroke-linejoin:round;stroke:rgb(81.568627%,56.078431%,33.333333%);stroke-opacity:1;stroke-miterlimit:10;" d="M 259.199219 1519.085938 L 300.925781 1564.125 L 342.699219 1543.609375 L 332.269531 1532.335938 L 345.273438 1526.007813 L 313.929688 1492.191406 Z M 259.199219 1519.085938 "/>
<path style="fill-rule:evenodd;fill:rgb(81.568627%,56.078431%,33.333333%);fill-opacity:1;stroke-width:1.5;stroke-linecap:round;stroke-linejoin:round;stroke:rgb(81.568627%,56.078431%,33.333333%);stroke-opacity:1;stroke-miterlimit:10;" d="M 320.15625 1419.222656 L 361.933594 1464.210938 L 403.707031 1443.695313 L 393.277344 1432.472656 L 406.230469 1426.09375 L 374.933594 1392.328125 Z M 320.15625 1419.222656 "/>
<path style="fill-rule:evenodd;fill:rgb(81.568627%,56.078431%,33.333333%);fill-opacity:1;stroke-width:1.5;stroke-linecap:round;stroke-linejoin:round;stroke:rgb(81.568627%,56.078431%,33.333333%);stroke-opacity:1;stroke-miterlimit:10;" d="M 244.367188 1325.339844 L 286.09375 1370.328125 L 327.871094 1349.8125 L 317.488281 1338.589844 L 330.441406 1332.210938 L 299.144531 1298.445313 Z M 244.367188 1325.339844 "/>
<path style="fill-rule:evenodd;fill:rgb(81.568627%,56.078431%,33.333333%);fill-opacity:1;stroke-width:1.5;stroke-linecap:round;stroke-linejoin:round;stroke:rgb(81.568627%,56.078431%,33.333333%);stroke-opacity:1;stroke-miterlimit:10;" d="M 174.859375 1247.917969 L 216.289063 1293.105469 L 258.160156 1272.738281 L 247.828125 1261.464844 L 260.882813 1255.136719 L 229.785156 1221.222656 Z M 174.859375 1247.917969 "/>
<path style="fill-rule:evenodd;fill:rgb(81.568627%,56.078431%,33.333333%);fill-opacity:1;stroke-width:1.5;stroke-linecap:round;stroke-linejoin:round;stroke:rgb(81.568627%,56.078431%,33.333333%);stroke-opacity:1;stroke-miterlimit:10;" d="M 37.667969 1162.636719 L 66.191406 1212.816406 L 112.765625 1198.828125 L 105.644531 1186.269531 L 120.082031 1181.917969 L 98.722656 1144.296875 Z M 37.667969 1162.636719 "/>
<path style="fill-rule:evenodd;fill:rgb(81.568627%,56.078431%,33.333333%);fill-opacity:1;stroke-width:1.5;stroke-linecap:round;stroke-linejoin:round;stroke:rgb(81.568627%,56.078431%,33.333333%);stroke-opacity:1;stroke-miterlimit:10;" d="M 1654.394531 1597.992188 L 1625.078125 1575.890625 L 1631.703125 1571.246094 L 1595.316406 1543.808594 L 1569.164063 1562.148438 L 1557.546875 1553.398438 L 1507.613281 1588.449219 L 1543.257813 1615.34375 L 1571.09375 1595.816406 L 1612.769531 1627.210938 Z M 1654.394531 1597.992188 "/>
<path style="fill-rule:evenodd;fill:rgb(81.568627%,56.078431%,33.333333%);fill-opacity:1;stroke-width:1.5;stroke-linecap:round;stroke-linejoin:round;stroke:rgb(81.568627%,56.078431%,33.333333%);stroke-opacity:1;stroke-miterlimit:10;" d="M 1607.429688 1378.632813 L 1553.292969 1355.742188 L 1487.640625 1437.960938 L 1541.773438 1460.847656 Z M 1607.429688 1378.632813 "/>
<path style="fill-rule:evenodd;fill:rgb(81.568627%,56.078431%,33.333333%);fill-opacity:1;stroke-width:1.5;stroke-linecap:round;stroke-linejoin:round;stroke:rgb(81.568627%,56.078431%,33.333333%);stroke-opacity:1;stroke-miterlimit:10;" d="M 1658.449219 1333.003906 L 1626.511719 1355.398438 L 1650.886719 1373.789063 L 1682.824219 1351.34375 Z M 1658.449219 1333.003906 "/>
<path style="fill-rule:evenodd;fill:rgb(81.568627%,56.078431%,33.333333%);fill-opacity:1;stroke-width:1.5;stroke-linecap:round;stroke-linejoin:round;stroke:rgb(81.568627%,56.078431%,33.333333%);stroke-opacity:1;stroke-miterlimit:10;" d="M 990.835938 800.109375 L 1051.152344 801.988281 L 1051.890625 787.453125 L 1059.210938 787.699219 L 1060.097656 771.039063 L 1052.78125 770.839844 L 1053.621094 754.871094 L 1053.226563 754.871094 L 1053.277344 751.609375 L 1061.1875 751.660156 L 1061.433594 733.859375 L 1053.472656 733.8125 L 1053.671875 718.535156 L 1029.347656 718.980469 L 1027.320313 729.953125 L 990.488281 728.917969 L 988.957031 758.085938 L 965.722656 758.53125 L 965.621094 755.613281 L 911.535156 759.617188 L 917.273438 792.691406 L 943.425781 793.136719 L 943.769531 794.71875 L 991.183594 793.53125 Z M 990.835938 800.109375 "/>
<path style="fill-rule:evenodd;fill:rgb(81.568627%,56.078431%,33.333333%);fill-opacity:1;stroke-width:1.5;stroke-linecap:round;stroke-linejoin:round;stroke:rgb(81.568627%,56.078431%,33.333333%);stroke-opacity:1;stroke-miterlimit:10;" d="M 980.453125 1239.664063 L 994.296875 1276.097656 L 1041.261719 1266.558594 L 1046.949219 1281.535156 L 1105.679688 1269.621094 L 1099.996094 1254.644531 L 1111.710938 1252.269531 L 1103.554688 1230.8125 L 1091.839844 1233.1875 L 1086.152344 1218.207031 Z M 980.453125 1239.664063 "/>
<path style="fill-rule:evenodd;fill:rgb(81.568627%,56.078431%,33.333333%);fill-opacity:1;stroke-width:1.5;stroke-linecap:round;stroke-linejoin:round;stroke:rgb(81.568627%,56.078431%,33.333333%);stroke-opacity:1;stroke-miterlimit:10;" d="M 728.46875 1084.773438 L 746.117188 1073.847656 L 722.980469 1053.824219 L 705.230469 1064.75 Z M 728.46875 1084.773438 "/>
<path style="fill-rule:evenodd;fill:rgb(81.568627%,56.078431%,33.333333%);fill-opacity:1;stroke-width:1.5;stroke-linecap:round;stroke-linejoin:round;stroke:rgb(81.568627%,56.078431%,33.333333%);stroke-opacity:1;stroke-miterlimit:10;" d="M 370.683594 863.734375 L 378.691406 894.335938 L 388.28125 892.953125 L 390.804688 902.59375 L 414.140625 899.332031 L 421.210938 888.355469 L 413.199219 857.753906 Z M 370.683594 863.734375 "/>
<path style="fill-rule:evenodd;fill:rgb(81.568627%,56.078431%,33.333333%);fill-opacity:1;stroke-width:1.5;stroke-linecap:round;stroke-linejoin:round;stroke:rgb(81.568627%,56.078431%,33.333333%);stroke-opacity:1;stroke-miterlimit:10;" d="M 907.335938 891.023438 L 923.304688 877.628906 L 900.316406 862.992188 L 884.347656 876.488281 Z M 907.335938 891.023438 "/>
<path style="fill-rule:evenodd;fill:rgb(81.568627%,56.078431%,33.333333%);fill-opacity:1;stroke-width:1.5;stroke-linecap:round;stroke-linejoin:round;stroke:rgb(81.568627%,56.078431%,33.333333%);stroke-opacity:1;stroke-miterlimit:10;" d="M 1147.949219 1195.070313 L 1180.53125 1285.394531 L 1221.8125 1277.484375 L 1189.230469 1187.109375 Z M 1147.949219 1195.070313 "/>
<path style="fill-rule:evenodd;fill:rgb(81.568627%,56.078431%,33.333333%);fill-opacity:1;stroke-width:1.5;stroke-linecap:round;stroke-linejoin:round;stroke:rgb(81.568627%,56.078431%,33.333333%);stroke-opacity:1;stroke-miterlimit:10;" d="M 834.316406 1201.84375 L 854.585938 1179.59375 L 804.304688 1155.171875 L 784.726563 1172.378906 L 811.324219 1185.332031 L 807.914063 1189.039063 Z M 834.316406 1201.84375 "/>
<path style="fill-rule:evenodd;fill:rgb(81.568627%,56.078431%,33.333333%);fill-opacity:1;stroke-width:1.5;stroke-linecap:round;stroke-linejoin:round;stroke:rgb(81.568627%,56.078431%,33.333333%);stroke-opacity:1;stroke-miterlimit:10;" d="M 711.855469 1535.550781 L 727.332031 1520.175781 L 707.652344 1509.59375 L 692.179688 1525.070313 Z M 711.855469 1535.550781 "/>
<path style="fill-rule:evenodd;fill:rgb(81.568627%,56.078431%,33.333333%);fill-opacity:1;stroke-width:1.5;stroke-linecap:round;stroke-linejoin:round;stroke:rgb(81.568627%,56.078431%,33.333333%);stroke-opacity:1;stroke-miterlimit:10;" d="M 502.929688 2224.226563 L 516.824219 2211.371094 L 520.183594 2212.753906 L 522.308594 2210.578125 L 527.304688 2213.152344 L 547.375 2192.289063 L 542.429688 2189.765625 L 545.347656 2186.699219 L 508.863281 2172.808594 L 484.589844 2197.972656 L 487.210938 2199.0625 L 474.257813 2211.617188 Z M 502.929688 2224.226563 "/>
<path style="fill-rule:evenodd;fill:rgb(81.568627%,56.078431%,33.333333%);fill-opacity:1;stroke-width:1.5;stroke-linecap:round;stroke-linejoin:round;stroke:rgb(81.568627%,56.078431%,33.333333%);stroke-opacity:1;stroke-miterlimit:10;" d="M 699.644531 500.363281 L 719.765625 472.382813 L 697.667969 463.878906 L 677.546875 491.859375 Z M 699.644531 500.363281 "/>
<path style="fill-rule:evenodd;fill:rgb(81.568627%,56.078431%,33.333333%);fill-opacity:1;stroke-width:1.5;stroke-linecap:round;stroke-linejoin:round;stroke:rgb(81.568627%,56.078431%,33.333333%);stroke-opacity:1;stroke-miterlimit:10;" d="M 954.398438 1838.558594 L 980.257813 1854.675781 L 1009.277344 1829.757813 L 1013.972656 1832.625 L 1035.675781 1814.035156 L 992.515625 1787.191406 L 970.8125 1805.828125 L 972.148438 1806.667969 L 965.425781 1812.453125 L 970.320313 1815.46875 L 950.988281 1832.082031 Z M 954.398438 1838.558594 "/>
<path style="fill-rule:evenodd;fill:rgb(81.568627%,56.078431%,33.333333%);fill-opacity:1;stroke-width:1.5;stroke-linecap:round;stroke-linejoin:round;stroke:rgb(81.568627%,56.078431%,33.333333%);stroke-opacity:1;stroke-miterlimit:10;" d="M 862.246094 2107.253906 L 875.695313 2104.929688 L 874.359375 2101.023438 L 902.191406 2096.03125 L 888.546875 2055.394531 L 829.570313 2065.921875 L 844.5 2110.46875 L 853.398438 2108.886719 L 856.859375 2119.265625 L 865.757813 2117.683594 Z M 862.246094 2107.253906 "/>
<path style="fill-rule:evenodd;fill:rgb(81.568627%,56.078431%,33.333333%);fill-opacity:1;stroke-width:1.5;stroke-linecap:round;stroke-linejoin:round;stroke:rgb(81.568627%,56.078431%,33.333333%);stroke-opacity:1;stroke-miterlimit:10;" d="M 1055.15625 966.21875 L 1088.921875 964.488281 L 1092.726563 922.070313 L 1015.503906 918.363281 L 1012.191406 955.246094 L 1055.996094 957.320313 Z M 1055.15625 966.21875 "/>
<path style="fill-rule:evenodd;fill:rgb(81.568627%,56.078431%,33.333333%);fill-opacity:1;stroke-width:1.5;stroke-linecap:round;stroke-linejoin:round;stroke:rgb(81.568627%,56.078431%,33.333333%);stroke-opacity:1;stroke-miterlimit:10;" d="M 1074.4375 721.15625 L 1166.09375 719.175781 L 1165.15625 696.929688 L 1073.496094 698.90625 Z M 1074.4375 721.15625 "/>
<path style="fill-rule:evenodd;fill:rgb(81.568627%,56.078431%,33.333333%);fill-opacity:1;stroke-width:1.5;stroke-linecap:round;stroke-linejoin:round;stroke:rgb(81.568627%,56.078431%,33.333333%);stroke-opacity:1;stroke-miterlimit:10;" d="M 1047.988281 715.074219 L 1065.042969 714.726563 L 1064.398438 699.15625 L 1047.34375 699.5 Z M 1047.988281 715.074219 "/>
<path style="fill-rule:evenodd;fill:rgb(81.568627%,56.078431%,33.333333%);fill-opacity:1;stroke-width:1.5;stroke-linecap:round;stroke-linejoin:round;stroke:rgb(81.568627%,56.078431%,33.333333%);stroke-opacity:1;stroke-miterlimit:10;" d="M 829.667969 1987.910156 L 846.773438 1996.5625 L 866.894531 2002.199219 L 853.890625 1986.082031 L 852.707031 1958.496094 L 827.097656 1959.039063 Z M 829.667969 1987.910156 "/>
<path style="fill-rule:evenodd;fill:rgb(81.568627%,56.078431%,33.333333%);fill-opacity:1;stroke-width:1.5;stroke-linecap:round;stroke-linejoin:round;stroke:rgb(81.568627%,56.078431%,33.333333%);stroke-opacity:1;stroke-miterlimit:10;" d="M 561.21875 1932.539063 L 585.492188 1919.191406 L 579.660156 1913.457031 L 639.773438 1876.675781 L 624.300781 1863.078125 L 639.230469 1851.3125 L 625.785156 1842.214844 L 612.4375 1852.796875 L 580.695313 1872.226563 L 592.414063 1882.457031 L 576.542969 1892.148438 L 580.449219 1895.558594 L 568.632813 1902.777344 L 570.859375 1904.953125 L 546.535156 1918.351563 Z M 561.21875 1932.539063 "/>
<path style="fill-rule:evenodd;fill:rgb(81.568627%,56.078431%,33.333333%);fill-opacity:1;stroke-width:1.5;stroke-linecap:round;stroke-linejoin:round;stroke:rgb(81.568627%,56.078431%,33.333333%);stroke-opacity:1;stroke-miterlimit:10;" d="M 848.949219 1810.527344 L 856.316406 1827.433594 L 914.996094 1813.839844 L 901.601563 1783.285156 L 836.046875 1798.5625 L 841.976563 1812.109375 Z M 848.949219 1810.527344 "/>
<path style="fill-rule:evenodd;fill:rgb(81.568627%,56.078431%,33.333333%);fill-opacity:1;stroke-width:1.5;stroke-linecap:round;stroke-linejoin:round;stroke:rgb(81.568627%,56.078431%,33.333333%);stroke-opacity:1;stroke-miterlimit:10;" d="M 762.777344 1575.941406 L 752.890625 1587.757813 L 779.242188 1599.621094 L 815.921875 1555.871094 L 741.46875 1525.664063 L 716.554688 1555.226563 Z M 762.777344 1575.941406 "/>
<path style="fill-rule:evenodd;fill:rgb(81.568627%,56.078431%,33.333333%);fill-opacity:1;stroke-width:1.5;stroke-linecap:round;stroke-linejoin:round;stroke:rgb(81.568627%,56.078431%,33.333333%);stroke-opacity:1;stroke-miterlimit:10;" d="M 906.347656 1535.699219 L 850.53125 1512.464844 L 837.132813 1525.5625 L 832.882813 1539.0625 L 840.347656 1552.359375 L 856.214844 1560.417969 L 863.78125 1550.726563 L 887.066406 1560.417969 Z M 906.347656 1535.699219 "/>
<path style="fill-rule:evenodd;fill:rgb(81.568627%,56.078431%,33.333333%);fill-opacity:1;stroke-width:1.5;stroke-linecap:round;stroke-linejoin:round;stroke:rgb(81.568627%,56.078431%,33.333333%);stroke-opacity:1;stroke-miterlimit:10;" d="M 745.96875 1464.0625 L 677.742188 1419.617188 L 693.265625 1406.960938 L 673.394531 1395.195313 L 679.078125 1390.003906 L 662.46875 1380.265625 L 600.71875 1431.285156 L 698.308594 1494.960938 L 707.851563 1495.210938 Z M 745.96875 1464.0625 "/>
<path style="fill-rule:evenodd;fill:rgb(81.568627%,56.078431%,33.333333%);fill-opacity:1;stroke-width:1.5;stroke-linecap:round;stroke-linejoin:round;stroke:rgb(81.568627%,56.078431%,33.333333%);stroke-opacity:1;stroke-miterlimit:10;" d="M 1110.824219 1658.800781 L 1126.246094 1639.617188 L 1110.476563 1632.894531 L 1095.003906 1652.027344 Z M 1110.824219 1658.800781 "/>
<path style="fill-rule:evenodd;fill:rgb(81.568627%,56.078431%,33.333333%);fill-opacity:1;stroke-width:1.5;stroke-linecap:round;stroke-linejoin:round;stroke:rgb(81.568627%,56.078431%,33.333333%);stroke-opacity:1;stroke-miterlimit:10;" d="M 1002.699219 1907.722656 L 942.386719 1914.097656 L 948.714844 1945.839844 L 1009.027344 1939.410156 L 1006.953125 1929.277344 L 1042.597656 1925.46875 L 1032.019531 1881.617188 L 1018.621094 1847.949219 L 994.542969 1866.589844 Z M 1002.699219 1907.722656 "/>
<path style="fill-rule:evenodd;fill:rgb(81.568627%,56.078431%,33.333333%);fill-opacity:1;stroke-width:1.5;stroke-linecap:round;stroke-linejoin:round;stroke:rgb(81.568627%,56.078431%,33.333333%);stroke-opacity:1;stroke-miterlimit:10;" d="M 1001.21875 1977.132813 L 1015.652344 1965.664063 L 1002.109375 1956.664063 L 987.769531 1968.136719 Z M 1001.21875 1977.132813 "/>
<path style="fill-rule:evenodd;fill:rgb(81.568627%,56.078431%,33.333333%);fill-opacity:1;stroke-width:1.5;stroke-linecap:round;stroke-linejoin:round;stroke:rgb(81.568627%,56.078431%,33.333333%);stroke-opacity:1;stroke-miterlimit:10;" d="M 824.871094 1920.328125 L 846.179688 1919.734375 L 845.390625 1904.210938 L 824.082031 1904.753906 Z M 824.871094 1920.328125 "/>
<path style="fill-rule:evenodd;fill:rgb(81.568627%,56.078431%,33.333333%);fill-opacity:1;stroke-width:1.5;stroke-linecap:round;stroke-linejoin:round;stroke:rgb(81.568627%,56.078431%,33.333333%);stroke-opacity:1;stroke-miterlimit:10;" d="M 932.546875 1554.585938 L 915.589844 1549.589844 L 906.496094 1566.152344 L 923.453125 1571.144531 Z M 932.546875 1554.585938 "/>
<path style="fill-rule:evenodd;fill:rgb(81.568627%,56.078431%,33.333333%);fill-opacity:1;stroke-width:1.5;stroke-linecap:round;stroke-linejoin:round;stroke:rgb(81.568627%,56.078431%,33.333333%);stroke-opacity:1;stroke-miterlimit:10;" d="M 774.097656 1517.355469 L 786.210938 1496.9375 L 758.277344 1488.140625 L 746.167969 1508.558594 Z M 774.097656 1517.355469 "/>
<path style="fill-rule:evenodd;fill:rgb(81.568627%,56.078431%,33.333333%);fill-opacity:1;stroke-width:1.5;stroke-linecap:round;stroke-linejoin:round;stroke:rgb(81.568627%,56.078431%,33.333333%);stroke-opacity:1;stroke-miterlimit:10;" d="M 774.347656 1404.539063 L 744.929688 1432.621094 L 766.140625 1444.585938 L 771.726563 1439.246094 L 778.992188 1443.300781 L 773.40625 1448.589844 L 798.570313 1462.679688 L 837.28125 1425.847656 L 813.105469 1412.25 L 803.8125 1421.101563 Z M 774.347656 1404.539063 "/>
<path style="fill-rule:evenodd;fill:rgb(81.568627%,56.078431%,33.333333%);fill-opacity:1;stroke-width:1.5;stroke-linecap:round;stroke-linejoin:round;stroke:rgb(81.568627%,56.078431%,33.333333%);stroke-opacity:1;stroke-miterlimit:10;" d="M 663.210938 1150.082031 L 678.1875 1160.511719 L 699.199219 1144.394531 L 722.585938 1160.660156 L 741.320313 1146.273438 L 761.292969 1156.558594 L 777.214844 1140.292969 L 760.355469 1131.640625 L 669.933594 1068.753906 L 648.972656 1084.871094 L 643.632813 1081.164063 L 626.824219 1094.066406 L 637.402344 1101.433594 L 616.390625 1117.550781 L 623.511719 1122.496094 L 608.828125 1133.765625 L 633.050781 1150.625 L 628.847656 1153.886719 L 644.324219 1164.617188 Z M 663.210938 1150.082031 "/>
<path style="fill-rule:evenodd;fill:rgb(81.568627%,56.078431%,33.333333%);fill-opacity:1;stroke-width:1.5;stroke-linecap:round;stroke-linejoin:round;stroke:rgb(81.568627%,56.078431%,33.333333%);stroke-opacity:1;stroke-miterlimit:10;" d="M 664.296875 930.03125 L 682.785156 918.464844 L 668.945313 906.648438 L 650.453125 918.214844 Z M 664.296875 930.03125 "/>
<path style="fill-rule:evenodd;fill:rgb(81.568627%,56.078431%,33.333333%);fill-opacity:1;stroke-width:1.5;stroke-linecap:round;stroke-linejoin:round;stroke:rgb(81.568627%,56.078431%,33.333333%);stroke-opacity:1;stroke-miterlimit:10;" d="M 522.457031 703.851563 L 522.359375 686.054688 L 461.453125 686.300781 L 461.601563 704.148438 Z M 522.457031 703.851563 "/>
<path style="fill-rule:evenodd;fill:rgb(81.568627%,56.078431%,33.333333%);fill-opacity:1;stroke-width:1.5;stroke-linecap:round;stroke-linejoin:round;stroke:rgb(81.568627%,56.078431%,33.333333%);stroke-opacity:1;stroke-miterlimit:10;" d="M 203.976563 549.949219 L 228.351563 536.257813 L 234.085938 540.410156 L 264.191406 518.410156 L 238.289063 499.523438 L 229.683594 505.851563 L 223.210938 501.105469 L 201.703125 516.875 L 208.179688 521.621094 L 186.722656 537.34375 Z M 203.976563 549.949219 "/>
<path style="fill-rule:evenodd;fill:rgb(81.568627%,56.078431%,33.333333%);fill-opacity:1;stroke-width:1.5;stroke-linecap:round;stroke-linejoin:round;stroke:rgb(81.568627%,56.078431%,33.333333%);stroke-opacity:1;stroke-miterlimit:10;" d="M 320.554688 950.203125 L 326.832031 960.289063 L 357.335938 950.203125 L 342.207031 925.878906 L 311.703125 936.011719 L 315.460938 942.09375 L 307.15625 944.863281 L 312.246094 952.921875 Z M 320.554688 950.203125 "/>
<path style="fill-rule:evenodd;fill:rgb(81.568627%,56.078431%,33.333333%);fill-opacity:1;stroke-width:1.5;stroke-linecap:round;stroke-linejoin:round;stroke:rgb(81.568627%,56.078431%,33.333333%);stroke-opacity:1;stroke-miterlimit:10;" d="M 231.613281 1226.316406 L 185.09375 1248.363281 L 221.921875 1289.84375 L 258.261719 1272.589844 L 247.085938 1260.082031 L 257.320313 1255.285156 Z M 231.613281 1226.316406 "/>
<path style="fill-rule:evenodd;fill:rgb(81.568627%,56.078431%,33.333333%);fill-opacity:1;stroke-width:1.5;stroke-linecap:round;stroke-linejoin:round;stroke:rgb(81.568627%,56.078431%,33.333333%);stroke-opacity:1;stroke-miterlimit:10;" d="M 1588.542969 1603.921875 L 1602.4375 1615.046875 L 1615.683594 1606.296875 L 1625.078125 1613.910156 L 1654 1594.828125 L 1593.585938 1545.882813 L 1571.488281 1560.46875 L 1560.859375 1551.863281 L 1517.847656 1580.191406 L 1565.851563 1619.101563 Z M 1588.542969 1603.921875 "/>
<path style="fill-rule:evenodd;fill:rgb(81.568627%,56.078431%,33.333333%);fill-opacity:1;stroke-width:1.5;stroke-linecap:round;stroke-linejoin:round;stroke:rgb(81.568627%,56.078431%,33.333333%);stroke-opacity:1;stroke-miterlimit:10;" d="M 1634.371094 1354.160156 L 1654.296875 1368.945313 L 1681.683594 1349.414063 L 1661.859375 1334.585938 Z M 1634.371094 1354.160156 "/>
<path style="fill-rule:evenodd;fill:rgb(81.568627%,56.078431%,33.333333%);fill-opacity:1;stroke-width:1.5;stroke-linecap:round;stroke-linejoin:round;stroke:rgb(81.568627%,56.078431%,33.333333%);stroke-opacity:1;stroke-miterlimit:10;" d="M 1493.425781 1438.058594 L 1543.851563 1457.585938 L 1601.792969 1378.089844 L 1551.367188 1358.511719 Z M 1493.425781 1438.058594 "/>
<path style="fill-rule:evenodd;fill:rgb(81.568627%,56.078431%,33.333333%);fill-opacity:1;stroke-width:1.5;stroke-linecap:round;stroke-linejoin:round;stroke:rgb(81.568627%,56.078431%,33.333333%);stroke-opacity:1;stroke-miterlimit:10;" d="M 1197.882813 1107.761719 L 1196.398438 1068.457031 L 1132.425781 1069.792969 L 1133.710938 1102.027344 L 1152.398438 1101.632813 L 1152.648438 1108.699219 Z M 1197.882813 1107.761719 "/>
<path style="fill-rule:evenodd;fill:rgb(81.568627%,56.078431%,33.333333%);fill-opacity:1;stroke-width:1.5;stroke-linecap:round;stroke-linejoin:round;stroke:rgb(81.568627%,56.078431%,33.333333%);stroke-opacity:1;stroke-miterlimit:10;" d="M 1100.636719 921.332031 L 1130.597656 918.511719 L 1136.136719 886.230469 L 1107.261719 886.03125 Z M 1100.636719 921.332031 "/>
<path style="fill-rule:evenodd;fill:rgb(81.568627%,56.078431%,33.333333%);fill-opacity:1;stroke-width:1.5;stroke-linecap:round;stroke-linejoin:round;stroke:rgb(81.568627%,56.078431%,33.333333%);stroke-opacity:1;stroke-miterlimit:10;" d="M 1301.011719 805.445313 L 1322.46875 803.570313 L 1321.480469 777.664063 L 1295.917969 785.769531 Z M 1301.011719 805.445313 "/>
<path style="fill-rule:evenodd;fill:rgb(81.568627%,56.078431%,33.333333%);fill-opacity:1;stroke-width:1.5;stroke-linecap:round;stroke-linejoin:round;stroke:rgb(81.568627%,56.078431%,33.333333%);stroke-opacity:1;stroke-miterlimit:10;" d="M 871.640625 556.675781 L 920.335938 542.632813 L 903.527344 511.585938 L 854.832031 525.628906 Z M 871.640625 556.675781 "/>
<path style="fill-rule:evenodd;fill:rgb(81.568627%,56.078431%,33.333333%);fill-opacity:1;stroke-width:1.5;stroke-linecap:round;stroke-linejoin:round;stroke:rgb(81.568627%,56.078431%,33.333333%);stroke-opacity:1;stroke-miterlimit:10;" d="M 527.898438 2031.910156 L 588.113281 2062.265625 L 608.828125 2040.214844 L 548.609375 2009.960938 Z M 527.898438 2031.910156 "/>
<path style="fill-rule:evenodd;fill:rgb(81.568627%,56.078431%,33.333333%);fill-opacity:1;stroke-width:1.5;stroke-linecap:round;stroke-linejoin:round;stroke:rgb(81.568627%,56.078431%,33.333333%);stroke-opacity:1;stroke-miterlimit:10;" d="M 604.527344 1993.25 L 582.476563 1977.875 L 569.871094 1987.515625 L 591.871094 2002.9375 Z M 604.527344 1993.25 "/>
<path style="fill-rule:evenodd;fill:rgb(81.568627%,56.078431%,33.333333%);fill-opacity:1;stroke-width:1.5;stroke-linecap:round;stroke-linejoin:round;stroke:rgb(81.568627%,56.078431%,33.333333%);stroke-opacity:1;stroke-miterlimit:10;" d="M 766.089844 2083.375 L 769.054688 2107.75 L 808.507813 2105.128906 L 805.492188 2080.753906 Z M 766.089844 2083.375 "/>
<path style="fill-rule:evenodd;fill:rgb(81.568627%,56.078431%,33.333333%);fill-opacity:1;stroke-width:1.5;stroke-linecap:round;stroke-linejoin:round;stroke:rgb(81.568627%,56.078431%,33.333333%);stroke-opacity:1;stroke-miterlimit:10;" d="M 712.449219 2104.4375 L 733.757813 2091.929688 L 720.804688 2080.113281 L 699.445313 2092.667969 Z M 712.449219 2104.4375 "/>
<path style="fill-rule:evenodd;fill:rgb(81.568627%,56.078431%,33.333333%);fill-opacity:1;stroke-width:1.5;stroke-linecap:round;stroke-linejoin:round;stroke:rgb(81.568627%,56.078431%,33.333333%);stroke-opacity:1;stroke-miterlimit:10;" d="M 712.84375 1951.574219 L 711.363281 1947.46875 L 643.039063 1960.816406 L 659.15625 2004.621094 L 656.734375 2005.066406 L 663.652344 2027.164063 L 670.328125 2026.027344 L 678.585938 2054.601563 L 687.039063 2062.363281 L 787.050781 2051.535156 L 780.179688 2023.0625 L 760.503906 1965.265625 L 738.355469 1969.617188 L 730.496094 1948.113281 Z M 712.84375 1951.574219 "/>
<path style="fill-rule:evenodd;fill:rgb(81.568627%,56.078431%,33.333333%);fill-opacity:1;stroke-width:1.5;stroke-linecap:round;stroke-linejoin:round;stroke:rgb(81.568627%,56.078431%,33.333333%);stroke-opacity:1;stroke-miterlimit:10;" d="M 545.644531 1969.964844 L 566.210938 1956.714844 L 533.976563 1930.019531 L 513.410156 1943.21875 Z M 545.644531 1969.964844 "/>
<path style="fill-rule:evenodd;fill:rgb(81.568627%,56.078431%,33.333333%);fill-opacity:1;stroke-width:1.5;stroke-linecap:round;stroke-linejoin:round;stroke:rgb(81.568627%,56.078431%,33.333333%);stroke-opacity:1;stroke-miterlimit:10;" d="M 640.121094 1928.734375 L 616.242188 1911.578125 L 594.886719 1927.445313 L 618.765625 1944.601563 Z M 640.121094 1928.734375 "/>
<path style="fill-rule:evenodd;fill:rgb(81.568627%,56.078431%,33.333333%);fill-opacity:1;stroke-width:1.5;stroke-linecap:round;stroke-linejoin:round;stroke:rgb(81.568627%,56.078431%,33.333333%);stroke-opacity:1;stroke-miterlimit:10;" d="M 702.808594 1933.378906 L 697.519531 1911.429688 L 667.511719 1915.335938 L 672.847656 1937.285156 Z M 702.808594 1933.378906 "/>
<path style="fill-rule:evenodd;fill:rgb(81.568627%,56.078431%,33.333333%);fill-opacity:1;stroke-width:1.5;stroke-linecap:round;stroke-linejoin:round;stroke:rgb(81.568627%,56.078431%,33.333333%);stroke-opacity:1;stroke-miterlimit:10;" d="M 641.011719 1865.304688 L 661.429688 1881.765625 L 681.75 1868.320313 L 661.332031 1851.808594 Z M 641.011719 1865.304688 "/>
<path style="fill-rule:evenodd;fill:rgb(81.568627%,56.078431%,33.333333%);fill-opacity:1;stroke-width:1.5;stroke-linecap:round;stroke-linejoin:round;stroke:rgb(81.568627%,56.078431%,33.333333%);stroke-opacity:1;stroke-miterlimit:10;" d="M 780.972656 1699.488281 L 797.582031 1686.484375 L 799.808594 1687.96875 L 812.265625 1678.230469 L 810.089844 1676.746094 L 824.230469 1665.671875 L 777.410156 1634.871094 L 765.644531 1644.019531 L 776.125 1651.136719 L 745.375 1675.164063 Z M 780.972656 1699.488281 "/>
<path style="fill-rule:evenodd;fill:rgb(81.568627%,56.078431%,33.333333%);fill-opacity:1;stroke-width:1.5;stroke-linecap:round;stroke-linejoin:round;stroke:rgb(81.568627%,56.078431%,33.333333%);stroke-opacity:1;stroke-miterlimit:10;" d="M 923.699219 1992.308594 L 888.894531 2042.292969 L 948.765625 2063.253906 L 964.585938 2039.175781 L 944.808594 2032.257813 L 979.910156 1976.292969 L 940.855469 1963.785156 Z M 923.699219 1992.308594 "/>
<path style="fill-rule:evenodd;fill:rgb(81.568627%,56.078431%,33.333333%);fill-opacity:1;stroke-width:1.5;stroke-linecap:round;stroke-linejoin:round;stroke:rgb(81.568627%,56.078431%,33.333333%);stroke-opacity:1;stroke-miterlimit:10;" d="M 801.785156 1814.085938 L 801.339844 1789.5625 L 734.351563 1790.257813 L 734.796875 1814.726563 Z M 801.785156 1814.085938 "/>
<path style="fill-rule:evenodd;fill:rgb(81.568627%,56.078431%,33.333333%);fill-opacity:1;stroke-width:1.5;stroke-linecap:round;stroke-linejoin:round;stroke:rgb(81.568627%,56.078431%,33.333333%);stroke-opacity:1;stroke-miterlimit:10;" d="M 977.683594 1673.234375 L 916.628906 1677.042969 L 927.605469 1730.734375 L 931.164063 1730.386719 L 932.992188 1739.136719 L 936.007813 1738.839844 L 939.273438 1754.710938 L 995.53125 1742.25 L 1004.480469 1734.835938 L 993.355469 1680.207031 Z M 977.683594 1673.234375 "/>
<path style="fill-rule:evenodd;fill:rgb(81.568627%,56.078431%,33.333333%);fill-opacity:1;stroke-width:1.5;stroke-linecap:round;stroke-linejoin:round;stroke:rgb(81.568627%,56.078431%,33.333333%);stroke-opacity:1;stroke-miterlimit:10;" d="M 859.921875 1764.894531 L 896.507813 1765.980469 L 897.890625 1739.285156 L 861.40625 1738.246094 Z M 859.921875 1764.894531 "/>
<path style="fill-rule:evenodd;fill:rgb(81.568627%,56.078431%,33.333333%);fill-opacity:1;stroke-width:1.5;stroke-linecap:round;stroke-linejoin:round;stroke:rgb(81.568627%,56.078431%,33.333333%);stroke-opacity:1;stroke-miterlimit:10;" d="M 844.894531 1686.882813 L 821.558594 1697.3125 L 843.707031 1723.910156 L 867.140625 1713.429688 Z M 844.894531 1686.882813 "/>
<path style="fill-rule:evenodd;fill:rgb(81.568627%,56.078431%,33.333333%);fill-opacity:1;stroke-width:1.5;stroke-linecap:round;stroke-linejoin:round;stroke:rgb(81.568627%,56.078431%,33.333333%);stroke-opacity:1;stroke-miterlimit:10;" d="M 896.507813 1605.851563 L 907.039063 1584.9375 L 869.859375 1575.003906 L 859.378906 1595.863281 Z M 896.507813 1605.851563 "/>
<path style="fill-rule:evenodd;fill:rgb(81.568627%,56.078431%,33.333333%);fill-opacity:1;stroke-width:1.5;stroke-linecap:round;stroke-linejoin:round;stroke:rgb(81.568627%,56.078431%,33.333333%);stroke-opacity:1;stroke-miterlimit:10;" d="M 863.679688 1465.101563 L 886.71875 1479.683594 L 906.691406 1462.875 L 883.605469 1448.339844 Z M 863.679688 1465.101563 "/>
<path style="fill-rule:evenodd;fill:rgb(81.568627%,56.078431%,33.333333%);fill-opacity:1;stroke-width:1.5;stroke-linecap:round;stroke-linejoin:round;stroke:rgb(81.568627%,56.078431%,33.333333%);stroke-opacity:1;stroke-miterlimit:10;" d="M 1058.171875 1682.628906 L 1032.019531 1671.257813 L 1016.445313 1690.390625 L 1042.648438 1701.761719 Z M 1058.171875 1682.628906 "/>
<path style="fill-rule:evenodd;fill:rgb(81.568627%,56.078431%,33.333333%);fill-opacity:1;stroke-width:1.5;stroke-linecap:round;stroke-linejoin:round;stroke:rgb(81.568627%,56.078431%,33.333333%);stroke-opacity:1;stroke-miterlimit:10;" d="M 1071.667969 1704.53125 L 1001.414063 1765.734375 L 1050.507813 1792.875 L 1082.789063 1764.5 L 1077.699219 1761.335938 L 1152.449219 1697.660156 L 1144.589844 1691.183594 L 1116.558594 1682.332031 L 1105.335938 1686.980469 L 1102.417969 1692.21875 L 1095.992188 1688.167969 L 1074.4375 1706.308594 Z M 1071.667969 1704.53125 "/>
<path style="fill-rule:evenodd;fill:rgb(81.568627%,56.078431%,33.333333%);fill-opacity:1;stroke-width:1.5;stroke-linecap:round;stroke-linejoin:round;stroke:rgb(81.568627%,56.078431%,33.333333%);stroke-opacity:1;stroke-miterlimit:10;" d="M 659.996094 1833.8125 L 667.953125 1824.320313 L 647.09375 1815.074219 L 639.183594 1824.566406 Z M 659.996094 1833.8125 "/>
<path style="fill-rule:evenodd;fill:rgb(81.568627%,56.078431%,33.333333%);fill-opacity:1;stroke-width:1.5;stroke-linecap:round;stroke-linejoin:round;stroke:rgb(81.568627%,56.078431%,33.333333%);stroke-opacity:1;stroke-miterlimit:10;" d="M 589.84375 1061.683594 L 606.355469 1085.515625 L 671.5625 1061.4375 L 655.101563 1037.609375 Z M 589.84375 1061.683594 "/>
<path style="fill-rule:evenodd;fill:rgb(81.568627%,56.078431%,33.333333%);fill-opacity:1;stroke-width:1.5;stroke-linecap:round;stroke-linejoin:round;stroke:rgb(81.568627%,56.078431%,33.333333%);stroke-opacity:1;stroke-miterlimit:10;" d="M 431.886719 961.375 L 560.328125 1047.695313 L 601.410156 1015.113281 L 580.796875 1001.273438 L 599.78125 986.339844 L 563.691406 961.820313 L 561.8125 963.351563 L 488.445313 916.535156 L 461.796875 937.644531 L 439.15625 922.417969 L 427.4375 932.949219 L 426.546875 943.332031 L 431.144531 954.058594 L 436.289063 957.964844 Z M 431.886719 961.375 "/>
<path style="fill-rule:evenodd;fill:rgb(81.568627%,56.078431%,33.333333%);fill-opacity:1;stroke-width:1.5;stroke-linecap:round;stroke-linejoin:round;stroke:rgb(81.568627%,56.078431%,33.333333%);stroke-opacity:1;stroke-miterlimit:10;" d="M 686.644531 975.265625 L 695.640625 969.234375 L 685.308594 961.078125 L 676.359375 967.109375 Z M 686.644531 975.265625 "/>
<path style="fill-rule:evenodd;fill:rgb(81.568627%,56.078431%,33.333333%);fill-opacity:1;stroke-width:1.5;stroke-linecap:round;stroke-linejoin:round;stroke:rgb(81.568627%,56.078431%,33.333333%);stroke-opacity:1;stroke-miterlimit:10;" d="M 946.835938 1639.074219 L 957.21875 1620.289063 L 940.707031 1614.207031 L 926.566406 1627.851563 Z M 946.835938 1639.074219 "/>
<path style="fill-rule:evenodd;fill:rgb(81.568627%,56.078431%,33.333333%);fill-opacity:1;stroke-width:1.5;stroke-linecap:round;stroke-linejoin:round;stroke:rgb(81.568627%,56.078431%,33.333333%);stroke-opacity:1;stroke-miterlimit:10;" d="M 725.304688 1840.929688 L 744.4375 1919.4375 L 764.308594 1959.382813 L 808.855469 1954.488281 L 800.398438 1913.308594 L 780.574219 1915.484375 L 761.195313 1835.9375 Z M 725.304688 1840.929688 "/>
<path style="fill-rule:evenodd;fill:rgb(81.568627%,56.078431%,33.333333%);fill-opacity:1;stroke-width:1.5;stroke-linecap:round;stroke-linejoin:round;stroke:rgb(81.568627%,56.078431%,33.333333%);stroke-opacity:1;stroke-miterlimit:10;" d="M 935.859375 64.070313 L 940.707031 66.789063 L 944.414063 63.28125 L 939.617188 60.5625 Z M 935.859375 64.070313 "/>
<path style="fill-rule:evenodd;fill:rgb(81.568627%,56.078431%,33.333333%);fill-opacity:1;stroke-width:1.5;stroke-linecap:round;stroke-linejoin:round;stroke:rgb(81.568627%,56.078431%,33.333333%);stroke-opacity:1;stroke-miterlimit:10;" d="M 778.203125 1060.152344 L 796.839844 1045.371094 L 773.753906 1033.160156 L 755.808594 1042.15625 Z M 778.203125 1060.152344 "/>
<path style="fill-rule:evenodd;fill:rgb(81.568627%,56.078431%,33.333333%);fill-opacity:1;stroke-width:1.5;stroke-linecap:round;stroke-linejoin:round;stroke:rgb(81.568627%,56.078431%,33.333333%);stroke-opacity:1;stroke-miterlimit:10;" d="M 755.558594 1103.363281 L 800.796875 1130.75 L 815.132813 1130.503906 L 844.84375 1149.535156 L 850.875 1144.542969 L 880.6875 1163.628906 L 912.824219 1136.882813 L 920.089844 1126.300781 L 867.683594 1086.75 L 840.742188 1068.707031 L 813.453125 1054.171875 L 772.46875 1085.8125 L 774.742188 1087.292969 Z M 755.558594 1103.363281 "/>
<path style="fill-rule:evenodd;fill:rgb(81.568627%,56.078431%,33.333333%);fill-opacity:1;stroke-width:1.5;stroke-linecap:round;stroke-linejoin:round;stroke:rgb(81.568627%,56.078431%,33.333333%);stroke-opacity:1;stroke-miterlimit:10;" d="M 740.679688 1040.527344 L 727.578125 1015.609375 L 696.28125 1024.410156 L 709.382813 1049.324219 Z M 740.679688 1040.527344 "/>
<path style="fill-rule:evenodd;fill:rgb(81.568627%,56.078431%,33.333333%);fill-opacity:1;stroke-width:1.5;stroke-linecap:round;stroke-linejoin:round;stroke:rgb(81.568627%,56.078431%,33.333333%);stroke-opacity:1;stroke-miterlimit:10;" d="M 860.714844 1049.027344 L 915.097656 1096.785156 L 944.363281 1126.945313 L 974.175781 1111.519531 L 977.242188 1106.972656 L 938.578125 1068.804688 L 972.246094 1022.578125 L 943.472656 1008.09375 L 928.691406 1019.316406 L 916.382813 1010.664063 Z M 860.714844 1049.027344 "/>
<path style="fill-rule:evenodd;fill:rgb(81.568627%,56.078431%,33.333333%);fill-opacity:1;stroke-width:1.5;stroke-linecap:round;stroke-linejoin:round;stroke:rgb(81.568627%,56.078431%,33.333333%);stroke-opacity:1;stroke-miterlimit:10;" d="M 1025.246094 983.917969 L 1029.347656 1035.53125 L 1029.59375 1045.320313 L 1026.828125 1045.320313 L 1027.519531 1072.660156 L 1029.992188 1072.5625 L 1031.722656 1097.480469 L 1037.800781 1096.984375 L 1040.519531 1107.019531 L 1034.488281 1107.859375 L 1037.40625 1118.785156 L 1043.4375 1117.945313 L 1064.351563 1168.324219 L 1121.699219 1154.480469 L 1105.878906 1119.480469 L 1092.777344 1070.1875 L 1137.074219 1068.507813 L 1136.726563 1052.835938 L 1087.734375 1044.480469 L 1076.167969 1044.628906 L 1076.414063 983.226563 Z M 1025.246094 983.917969 "/>
<path style="fill-rule:evenodd;fill:rgb(81.568627%,56.078431%,33.333333%);fill-opacity:1;stroke-width:1.5;stroke-linecap:round;stroke-linejoin:round;stroke:rgb(81.568627%,56.078431%,33.333333%);stroke-opacity:1;stroke-miterlimit:10;" d="M 879.996094 910.554688 L 855.621094 890.578125 L 817.011719 915.792969 L 841.335938 935.667969 Z M 879.996094 910.554688 "/>
<path style="fill-rule:evenodd;fill:rgb(81.568627%,56.078431%,33.333333%);fill-opacity:1;stroke-width:1.5;stroke-linecap:round;stroke-linejoin:round;stroke:rgb(81.568627%,56.078431%,33.333333%);stroke-opacity:1;stroke-miterlimit:10;" d="M 909.015625 911.886719 L 831.445313 958.457031 L 798.421875 926.324219 L 761.691406 895.425781 L 747.898438 904.175781 L 755.90625 910.898438 L 707.753906 939.574219 L 772.960938 1003.101563 L 770.488281 1004.4375 L 783.789063 1017.4375 L 786.261719 1016.101563 L 814.191406 1041.859375 L 872.828125 1007.898438 L 837.082031 975.265625 L 848.800781 968.199219 L 859.28125 977.441406 L 866.300781 973.242188 L 885.679688 990.394531 L 907.484375 977.292969 L 935.515625 1000.085938 L 955.882813 986.738281 L 954.300781 985.402344 L 972.59375 969.828125 L 949.210938 937.300781 L 927.355469 920.144531 L 922.808594 923.109375 Z M 909.015625 911.886719 "/>
<path style="fill-rule:evenodd;fill:rgb(81.568627%,56.078431%,33.333333%);fill-opacity:1;stroke-width:1.5;stroke-linecap:round;stroke-linejoin:round;stroke:rgb(81.568627%,56.078431%,33.333333%);stroke-opacity:1;stroke-miterlimit:10;" d="M 1006.953125 865.859375 L 973.484375 865.613281 L 973.039063 894.484375 L 1006.507813 894.78125 Z M 1006.953125 865.859375 "/>
<path style="fill-rule:evenodd;fill:rgb(81.568627%,56.078431%,33.333333%);fill-opacity:1;stroke-width:1.5;stroke-linecap:round;stroke-linejoin:round;stroke:rgb(81.568627%,56.078431%,33.333333%);stroke-opacity:1;stroke-miterlimit:10;" d="M 1078.933594 867.144531 L 1039.382813 865.8125 L 1037.503906 894.683594 L 1077.15625 896.019531 Z M 1078.933594 867.144531 "/>
<path style="fill-rule:evenodd;fill:rgb(81.568627%,56.078431%,33.333333%);fill-opacity:1;stroke-width:1.5;stroke-linecap:round;stroke-linejoin:round;stroke:rgb(81.568627%,56.078431%,33.333333%);stroke-opacity:1;stroke-miterlimit:10;" d="M 1111.761719 815.679688 L 1078.738281 811.527344 L 1071.46875 842.179688 L 1104.445313 846.382813 Z M 1111.761719 815.679688 "/>
<path style="fill-rule:evenodd;fill:rgb(81.568627%,56.078431%,33.333333%);fill-opacity:1;stroke-width:1.5;stroke-linecap:round;stroke-linejoin:round;stroke:rgb(81.568627%,56.078431%,33.333333%);stroke-opacity:1;stroke-miterlimit:10;" d="M 1121.996094 817.511719 L 1164.265625 813.0625 L 1159.421875 788.835938 L 1117.199219 793.335938 Z M 1121.996094 817.511719 "/>
<path style="fill-rule:evenodd;fill:rgb(81.568627%,56.078431%,33.333333%);fill-opacity:1;stroke-width:1.5;stroke-linecap:round;stroke-linejoin:round;stroke:rgb(81.568627%,56.078431%,33.333333%);stroke-opacity:1;stroke-miterlimit:10;" d="M 905.554688 1500.5 L 1003.144531 1545.683594 L 1059.652344 1493.082031 L 1047.394531 1486.457031 L 1034.933594 1498.078125 L 997.363281 1476.570313 L 983.320313 1490.660156 L 977.242188 1487.496094 L 1000.179688 1464.410156 L 961.71875 1444.039063 Z M 905.554688 1500.5 "/>
<path style="fill-rule:evenodd;fill:rgb(81.568627%,56.078431%,33.333333%);fill-opacity:1;stroke-width:1.5;stroke-linecap:round;stroke-linejoin:round;stroke:rgb(81.568627%,56.078431%,33.333333%);stroke-opacity:1;stroke-miterlimit:10;" d="M 490.917969 894.535156 L 546.039063 939.472656 L 554.988281 934.480469 L 573.972656 952.527344 L 577.878906 950.351563 L 583.8125 955.988281 L 629.097656 929.140625 L 573.527344 875.945313 L 579.808594 872.4375 L 525.078125 820.082031 L 502.832031 832.441406 L 488.097656 818.300781 L 443.40625 843.21875 L 444.789063 853.203125 Z M 490.917969 894.535156 "/>
<path style="fill-rule:evenodd;fill:rgb(81.568627%,56.078431%,33.333333%);fill-opacity:1;stroke-width:1.5;stroke-linecap:round;stroke-linejoin:round;stroke:rgb(81.568627%,56.078431%,33.333333%);stroke-opacity:1;stroke-miterlimit:10;" d="M 1238.175781 773.90625 L 1238.472656 781.023438 L 1295.722656 779.839844 L 1293.644531 726.445313 L 1236.296875 725.40625 L 1097.425781 732.230469 L 1076.710938 734.699219 L 1070.53125 740.980469 L 1070.578125 783.496094 L 1086.992188 783.003906 L 1086.695313 777.414063 Z M 1238.175781 773.90625 "/>
<path style="fill-rule:evenodd;fill:rgb(81.568627%,56.078431%,33.333333%);fill-opacity:1;stroke-width:1.5;stroke-linecap:round;stroke-linejoin:round;stroke:rgb(81.568627%,56.078431%,33.333333%);stroke-opacity:1;stroke-miterlimit:10;" d="M 1277.132813 705.382813 L 1297.648438 700.933594 L 1289.886719 681.753906 L 1269.421875 686.203125 Z M 1277.132813 705.382813 "/>
<path style="fill-rule:evenodd;fill:rgb(81.568627%,56.078431%,33.333333%);fill-opacity:1;stroke-width:1.5;stroke-linecap:round;stroke-linejoin:round;stroke:rgb(81.568627%,56.078431%,33.333333%);stroke-opacity:1;stroke-miterlimit:10;" d="M 1009.917969 840.101563 L 998.449219 812.417969 L 963.445313 820.128906 L 974.917969 847.816406 Z M 1009.917969 840.101563 "/>
<path style="fill-rule:evenodd;fill:rgb(81.568627%,56.078431%,33.333333%);fill-opacity:1;stroke-width:1.5;stroke-linecap:round;stroke-linejoin:round;stroke:rgb(81.568627%,56.078431%,33.333333%);stroke-opacity:1;stroke-miterlimit:10;" d="M 916.726563 736.382813 L 946.636719 732.179688 L 939.816406 705.976563 L 909.855469 710.128906 Z M 916.726563 736.382813 "/>
<path style="fill-rule:evenodd;fill:rgb(81.568627%,56.078431%,33.333333%);fill-opacity:1;stroke-width:1.5;stroke-linecap:round;stroke-linejoin:round;stroke:rgb(81.568627%,56.078431%,33.333333%);stroke-opacity:1;stroke-miterlimit:10;" d="M 904.023438 698.660156 L 936.75 692.679688 L 928.050781 668.996094 L 895.816406 674.929688 Z M 904.023438 698.660156 "/>
<path style="fill-rule:evenodd;fill:rgb(81.568627%,56.078431%,33.333333%);fill-opacity:1;stroke-width:1.5;stroke-linecap:round;stroke-linejoin:round;stroke:rgb(81.568627%,56.078431%,33.333333%);stroke-opacity:1;stroke-miterlimit:10;" d="M 824.773438 883.214844 L 797.929688 865.070313 L 773.109375 884.648438 L 799.953125 902.789063 Z M 824.773438 883.214844 "/>
<path style="fill-rule:evenodd;fill:rgb(81.568627%,56.078431%,33.333333%);fill-opacity:1;stroke-width:1.5;stroke-linecap:round;stroke-linejoin:round;stroke:rgb(81.568627%,56.078431%,33.333333%);stroke-opacity:1;stroke-miterlimit:10;" d="M 903.035156 830.265625 L 865.3125 807.671875 L 845.980469 824.925781 L 883.753906 847.46875 Z M 903.035156 830.265625 "/>
<path style="fill-rule:evenodd;fill:rgb(81.568627%,56.078431%,33.333333%);fill-opacity:1;stroke-width:1.5;stroke-linecap:round;stroke-linejoin:round;stroke:rgb(81.568627%,56.078431%,33.333333%);stroke-opacity:1;stroke-miterlimit:10;" d="M 756.203125 777.8125 L 751.0625 818.648438 L 817.0625 834.46875 L 826.949219 812.515625 L 824.03125 811.824219 L 836.242188 778.109375 L 844.746094 780.628906 L 865.757813 731.339844 L 854.140625 728.667969 L 861.109375 712.503906 L 864.769531 688.425781 L 867.832031 688.824219 L 867.980469 670.136719 L 864.917969 670.085938 L 857.253906 651.398438 L 851.273438 652.1875 L 849.589844 645.613281 L 835.945313 647.441406 L 837.628906 654.019531 L 831.59375 654.808594 L 831.300781 684.324219 L 826.601563 704.691406 L 820.371094 703.257813 L 798.769531 753.882813 L 770.09375 747.011719 Z M 756.203125 777.8125 "/>
<path style="fill-rule:evenodd;fill:rgb(81.568627%,56.078431%,33.333333%);fill-opacity:1;stroke-width:1.5;stroke-linecap:round;stroke-linejoin:round;stroke:rgb(81.568627%,56.078431%,33.333333%);stroke-opacity:1;stroke-miterlimit:10;" d="M 678.832031 694.605469 L 678.140625 681.257813 L 662.914063 681.652344 L 663.605469 695.003906 Z M 678.832031 694.605469 "/>
<path style="fill-rule:evenodd;fill:rgb(81.568627%,56.078431%,33.333333%);fill-opacity:1;stroke-width:1.5;stroke-linecap:round;stroke-linejoin:round;stroke:rgb(81.568627%,56.078431%,33.333333%);stroke-opacity:1;stroke-miterlimit:10;" d="M 682.6875 770.199219 L 737.464844 768.664063 L 734.796875 714.976563 L 733.609375 693.074219 L 678.832031 694.605469 Z M 682.6875 770.199219 "/>
<path style="fill-rule:evenodd;fill:rgb(81.568627%,56.078431%,33.333333%);fill-opacity:1;stroke-width:1.5;stroke-linecap:round;stroke-linejoin:round;stroke:rgb(81.568627%,56.078431%,33.333333%);stroke-opacity:1;stroke-miterlimit:10;" d="M 406.328125 821.117188 L 370.140625 817.609375 L 365.292969 844.058594 L 401.53125 847.570313 Z M 406.328125 821.117188 "/>
<path style="fill-rule:evenodd;fill:rgb(81.568627%,56.078431%,33.333333%);fill-opacity:1;stroke-width:1.5;stroke-linecap:round;stroke-linejoin:round;stroke:rgb(81.568627%,56.078431%,33.333333%);stroke-opacity:1;stroke-miterlimit:10;" d="M 323.914063 857.457031 L 324.261719 830.757813 L 278.53125 830.464844 L 278.183594 857.109375 Z M 323.914063 857.457031 "/>
<path style="fill-rule:evenodd;fill:rgb(81.568627%,56.078431%,33.333333%);fill-opacity:1;stroke-width:1.5;stroke-linecap:round;stroke-linejoin:round;stroke:rgb(81.568627%,56.078431%,33.333333%);stroke-opacity:1;stroke-miterlimit:10;" d="M 367.320313 732.179688 L 398.960938 731.390625 L 398.121094 713.589844 L 393.96875 711.464844 L 366.332031 712.15625 Z M 367.320313 732.179688 "/>
<path style="fill-rule:evenodd;fill:rgb(81.568627%,56.078431%,33.333333%);fill-opacity:1;stroke-width:1.5;stroke-linecap:round;stroke-linejoin:round;stroke:rgb(81.568627%,56.078431%,33.333333%);stroke-opacity:1;stroke-miterlimit:10;" d="M 342.652344 755.960938 L 330.636719 757.441406 L 333.902344 771.929688 L 275.019531 779.097656 L 273.832031 773.757813 L 243.726563 777.414063 L 252.03125 813.503906 L 282.039063 809.847656 L 283.027344 813.753906 L 301.320313 812.914063 L 342.15625 807.917969 L 340.972656 802.628906 L 434.410156 791.210938 L 424.027344 746.023438 L 375.675781 751.953125 L 372.167969 736.578125 L 339.09375 740.632813 Z M 342.652344 755.960938 "/>
<path style="fill-rule:evenodd;fill:rgb(81.568627%,56.078431%,33.333333%);fill-opacity:1;stroke-width:1.5;stroke-linecap:round;stroke-linejoin:round;stroke:rgb(81.568627%,56.078431%,33.333333%);stroke-opacity:1;stroke-miterlimit:10;" d="M 277.34375 763.277344 L 301.667969 761.695313 L 299.789063 746.21875 L 275.515625 747.703125 Z M 277.34375 763.277344 "/>
<path style="fill-rule:evenodd;fill:rgb(81.568627%,56.078431%,33.333333%);fill-opacity:1;stroke-width:1.5;stroke-linecap:round;stroke-linejoin:round;stroke:rgb(81.568627%,56.078431%,33.333333%);stroke-opacity:1;stroke-miterlimit:10;" d="M 1305.90625 291.339844 L 1258.988281 307.308594 L 1277.035156 335.535156 L 1323.949219 319.519531 Z M 1305.90625 291.339844 "/>
<path style="fill-rule:evenodd;fill:rgb(81.568627%,56.078431%,33.333333%);fill-opacity:1;stroke-width:1.5;stroke-linecap:round;stroke-linejoin:round;stroke:rgb(81.568627%,56.078431%,33.333333%);stroke-opacity:1;stroke-miterlimit:10;" d="M 1140.882813 147.375 L 1090.453125 195.921875 L 1122.046875 213.425781 L 1131.980469 203.832031 L 1144.144531 210.558594 L 1168.8125 186.777344 L 1157.097656 180.300781 L 1172.964844 165.074219 Z M 1140.882813 147.375 "/>
<path style="fill-rule:evenodd;fill:rgb(81.568627%,56.078431%,33.333333%);fill-opacity:1;stroke-width:1.5;stroke-linecap:round;stroke-linejoin:round;stroke:rgb(81.568627%,56.078431%,33.333333%);stroke-opacity:1;stroke-miterlimit:10;" d="M 836.046875 366.386719 L 789.027344 389.078125 L 817.210938 420.273438 L 864.226563 397.582031 L 849.144531 380.921875 L 920.335938 337.117188 L 891.664063 312.25 L 822.597656 354.71875 Z M 836.046875 366.386719 "/>
<path style="fill-rule:evenodd;fill:rgb(81.568627%,56.078431%,33.333333%);fill-opacity:1;stroke-width:1.5;stroke-linecap:round;stroke-linejoin:round;stroke:rgb(81.568627%,56.078431%,33.333333%);stroke-opacity:1;stroke-miterlimit:10;" d="M 833.128906 278.4375 L 863.582031 277.84375 L 862.246094 244.472656 L 831.84375 245.113281 Z M 833.128906 278.4375 "/>
<path style="fill-rule:evenodd;fill:rgb(81.568627%,56.078431%,33.333333%);fill-opacity:1;stroke-width:1.5;stroke-linecap:round;stroke-linejoin:round;stroke:rgb(81.568627%,56.078431%,33.333333%);stroke-opacity:1;stroke-miterlimit:10;" d="M 760.554688 299.496094 L 762.726563 297.964844 L 751.109375 288.867188 L 712.003906 315.5625 L 758.972656 352.296875 L 791.453125 330.148438 L 767.722656 311.609375 L 772.171875 308.59375 Z M 760.554688 299.496094 "/>
<path style="fill-rule:evenodd;fill:rgb(81.568627%,56.078431%,33.333333%);fill-opacity:1;stroke-width:1.5;stroke-linecap:round;stroke-linejoin:round;stroke:rgb(81.568627%,56.078431%,33.333333%);stroke-opacity:1;stroke-miterlimit:10;" d="M 660.6875 522.019531 L 638.835938 580.847656 L 683.230469 589.648438 L 686.542969 580.601563 L 754.175781 594.050781 L 780.425781 523.402344 L 761.640625 519.695313 L 769.648438 498.1875 L 730.199219 490.378906 L 722.289063 511.882813 L 686.097656 504.664063 L 678.289063 525.527344 Z M 660.6875 522.019531 "/>
<path style="fill-rule:evenodd;fill:rgb(81.568627%,56.078431%,33.333333%);fill-opacity:1;stroke-width:1.5;stroke-linecap:round;stroke-linejoin:round;stroke:rgb(81.568627%,56.078431%,33.333333%);stroke-opacity:1;stroke-miterlimit:10;" d="M 680.859375 614.914063 L 652.429688 601.960938 L 634.734375 622.722656 L 663.109375 635.675781 Z M 680.859375 614.914063 "/>
<path style="fill-rule:evenodd;fill:rgb(81.568627%,56.078431%,33.333333%);fill-opacity:1;stroke-width:1.5;stroke-linecap:round;stroke-linejoin:round;stroke:rgb(81.568627%,56.078431%,33.333333%);stroke-opacity:1;stroke-miterlimit:10;" d="M 98.476563 1150.574219 L 48 1167.285156 L 75.882813 1212.226563 L 115.285156 1199.222656 L 106.832031 1185.628906 L 117.953125 1181.96875 Z M 98.476563 1150.574219 "/>
<path style="fill-rule:evenodd;fill:rgb(81.568627%,56.078431%,33.333333%);fill-opacity:1;stroke-width:1.5;stroke-linecap:round;stroke-linejoin:round;stroke:rgb(81.568627%,56.078431%,33.333333%);stroke-opacity:1;stroke-miterlimit:10;" d="M 301.371094 1485.816406 L 258.011719 1510.980469 L 300.085938 1549.640625 L 333.949219 1530.011719 L 321.246094 1518.347656 L 330.785156 1512.808594 Z M 301.371094 1485.816406 "/>
<path style="fill-rule:evenodd;fill:rgb(81.568627%,56.078431%,33.333333%);fill-opacity:1;stroke-width:1.5;stroke-linecap:round;stroke-linejoin:round;stroke:rgb(81.568627%,56.078431%,33.333333%);stroke-opacity:1;stroke-miterlimit:10;" d="M 294.796875 1303.289063 L 248.71875 1325.832031 L 286.339844 1366.816406 L 322.28125 1349.265625 L 310.960938 1336.859375 L 321.097656 1331.914063 Z M 294.796875 1303.289063 "/>
<path style="fill-rule:evenodd;fill:rgb(81.568627%,56.078431%,33.333333%);fill-opacity:1;stroke-width:1.5;stroke-linecap:round;stroke-linejoin:round;stroke:rgb(81.568627%,56.078431%,33.333333%);stroke-opacity:1;stroke-miterlimit:10;" d="M 367.171875 1390.25 L 323.125 1414.871094 L 364.207031 1454.078125 L 398.566406 1434.894531 L 386.15625 1423.027344 L 395.847656 1417.640625 Z M 367.171875 1390.25 "/>
<path style="fill-rule:evenodd;fill:rgb(81.568627%,56.078431%,33.333333%);fill-opacity:1;stroke-width:1.5;stroke-linecap:round;stroke-linejoin:round;stroke:rgb(81.568627%,56.078431%,33.333333%);stroke-opacity:1;stroke-miterlimit:10;" d="M 575.257813 2161.933594 L 589.300781 2123.222656 L 559.832031 2117.535156 L 553.605469 2134.742188 L 547.722656 2133.605469 L 539.910156 2155.109375 Z M 575.257813 2161.933594 "/>
</g>
</svg>
