<?xml version="1.0" encoding="UTF-8"?>
<svg xmlns="http://www.w3.org/2000/svg" xmlns:xlink="http://www.w3.org/1999/xlink" width="2376pt" height="3360pt" viewBox="0 0 2376 3360" version="1.1">
<g id="surface41">
<rect x="0" y="0" width="2376" height="3360" style="fill:rgb(100%,100%,100%);fill-opacity:1;stroke:none;"/>
<rect x="0" y="0" width="2376" height="3360" style="fill:rgb(100%,100%,100%);fill-opacity:1;stroke:none;"/>
<path style="fill:none;stroke-width:0.75;stroke-linecap:round;stroke-linejoin:round;stroke:rgb(100%,100%,100%);stroke-opacity:1;stroke-miterlimit:10;" d="M 0 3360 L 2376 3360 L 2376 0 L 0 0 Z M 0 3360 "/>
<path style=" stroke:none;fill-rule:evenodd;fill:rgb(85.098039%,85.098039%,85.098039%);fill-opacity:1;" d="M 1091.890625 2069.695313 L 1091.203125 2070.453125 L 1072.476563 2091.507813 L 1056.183594 2109.785156 L 1051.988281 2114.5 L 1042.191406 2114.148438 L 1003.386719 2079.367188 L 977.648438 2056.304688 L 941.738281 2024.085938 L 957.820313 2006.019531 L 954.691406 2003.429688 L 984.707031 1971.292969 L 995.6875 1959.542969 L 991.84375 1956.101563 L 983.714844 1953.03125 L 972.246094 1945.78125 L 916.59375 2011.078125 L 887.375 2015.9375 L 917.542969 2038.121094 L 956.742188 2069.046875 L 989.792969 2100.023438 L 1013.0625 2119.882813 L 1032.058594 2130.675781 L 1051.808594 2134.835938 L 1072.050781 2149.746094 L 1086.570313 2157.519531 L 1136.105469 2183.554688 L 1157.875 2196.976563 L 1163.234375 2200.285156 L 1167.027344 2205.65625 L 1175.148438 2244.578125 L 1177.402344 2253.265625 L 1178.09375 2291.203125 L 1183.082031 2330.089844 L 1183.082031 2343.4375 L 1171.753906 2355.527344 L 1157.203125 2371.175781 L 1159.460938 2373.316406 L 1146.613281 2387.089844 L 1144.359375 2384.949219 L 1127.25 2403.375 L 1099.535156 2430.414063 L 1087.023438 2449.339844 L 1071.863281 2478.914063 L 1064.242188 2506.765625 L 1058.5625 2538.84375 L 1048.191406 2562.554688 L 1034.289063 2576.671875 L 1022.082031 2586.523438 L 1010.917969 2579.855469 L 1002.765625 2593.304688 L 981.324219 2580.253906 L 967.539063 2605.195313 L 981.386719 2618.019531 L 965.984375 2634.699219 L 976.371094 2647.121094 L 981.957031 2653.886719 L 961.800781 2670.886719 L 949.300781 2681.378906 L 932.941406 2695.125 L 920.074219 2705.941406 L 926.070313 2714.015625 L 918.085938 2720.035156 L 953.980469 2756.089844 L 935.25 2765.878906 L 919.628906 2768.019531 L 906.242188 2767.078125 L 885.066406 2785.808594 L 862.589844 2802.753906 L 897.128906 2797.617188 L 922.957031 2797.007813 L 938.046875 2798.277344 L 946.03125 2803.402344 L 952.792969 2811.898438 L 956.96875 2824.179688 L 958.703125 2839.050781 L 958.117188 2853.796875 L 955.628906 2865.636719 L 935.335938 2855.578125 L 910.898438 2840.910156 L 898.171875 2838.945313 L 888.105469 2842.378906 L 919.070313 2863.78125 L 950.09375 2885.183594 L 928.769531 2916.320313 L 924.800781 2942.429688 L 932.660156 2978.652344 L 930.007813 3002.523438 L 915.558594 3057.320313 L 903.902344 3077.734375 L 886.851563 3100.25 L 866.167969 3129.730469 L 861.046875 3126.097656 L 858.875 3129.183594 L 855.371094 3127.203125 L 841.078125 3145.363281 L 881.671875 3168.003906 L 907.730469 3142.210938 L 926.855469 3110.882813 L 937.324219 3057.332031 L 946.199219 3005.023438 L 958.707031 2950.40625 L 965.179688 2906.285156 L 976.375 2878.457031 L 992.496094 2887.441406 L 1019.457031 2915.945313 L 1033.355469 2930.597656 L 1041.371094 2943.460938 L 1043.324219 2959.332031 L 1065.34375 2941.585938 L 1078.671875 2958.265625 L 1091.835938 2966.957031 L 1112.78125 2955.597656 L 1111.949219 2946.179688 L 1152.492188 2942.507813 L 1155.597656 2976.980469 L 1166.910156 2997.808594 L 1193.820313 3000.066406 L 1192.628906 2984.488281 L 1178.875 2928.289063 L 1177.242188 2921.535156 L 1209.324219 2913.699219 L 1237.980469 2906.65625 L 1245.710938 2891.640625 L 1238.335938 2888.136719 L 1241.058594 2882.457031 L 1254.625 2854.0625 L 1256.277344 2854.894531 L 1265.21875 2836.132813 L 1274.164063 2817.4375 L 1285.066406 2792.515625 L 1291.78125 2777.089844 L 1299.910156 2751.679688 L 1293.375 2706.855469 L 1289.800781 2684.609375 L 1285.253906 2652.382813 L 1278.28125 2640.9375 L 1276.992188 2617.492188 L 1281.152344 2582.5625 L 1297.011719 2537.734375 L 1310.167969 2517.15625 L 1330.359375 2503.613281 L 1354.136719 2497.019531 L 1358.746094 2491.414063 L 1360.320313 2489.480469 L 1363.960938 2485.160156 L 1372.757813 2474.523438 L 1380.761719 2464.789063 L 1384.097656 2460.730469 L 1385.980469 2458.535156 L 1388.710938 2455.183594 L 1410.003906 2429.527344 L 1426.402344 2410.492188 L 1429.292969 2412.988281 L 1451.464844 2387.304688 L 1458.089844 2393.097656 L 1461.078125 2385.648438 L 1472.621094 2379.089844 L 1442.925781 2349.148438 L 1422.398438 2348.597656 L 1398.542969 2347.953125 L 1354.75 2345.359375 L 1331.558594 2336.953125 L 1323.320313 2333.976563 L 1328.648438 2311.605469 L 1324.285156 2299.265625 L 1308.628906 2291.335938 L 1297.964844 2317.890625 L 1277.066406 2302.050781 L 1252.925781 2273.402344 L 1246.144531 2270.953125 L 1207.921875 2256.804688 L 1218.757813 2227.289063 L 1239.929688 2235.121094 L 1256.414063 2214.761719 L 1265.792969 2191.394531 L 1277.039063 2163.1875 L 1303.289063 2179.816406 L 1339.628906 2205.03125 L 1405.007813 2259.074219 L 1466.386719 2309.140625 L 1482.585938 2318.6875 L 1510.296875 2342.640625 L 1525.496094 2363.296875 L 1536.863281 2388.34375 L 1585.257813 2391.691406 L 1640.890625 2402.636719 L 1716.316406 2432.726563 L 1761.070313 2460.476563 L 1825.871094 2496.34375 L 1866.375 2522.324219 L 1879.292969 2535.617188 L 1889.003906 2544.089844 L 1901.257813 2556.082031 L 1924.308594 2588.347656 L 1980.066406 2663.753906 L 2035.246094 2738.796875 L 2085.050781 2819.027344 L 2107.273438 2859.628906 L 2266.996094 3134.398438 L 2314.160156 3230 L 2346.757813 3284.972656 L 2381.988281 3348.746094 L 2432.167969 3435.699219 L 2485.484375 3515.894531 L 2513.113281 3554.828125 L 2520.609375 3544.796875 L 2467.875 3460.808594 L 2420.375 3384.355469 L 2373.371094 3299.007813 L 2340.167969 3244.746094 L 2301.71875 3155.695313 L 2254.554688 3086.910156 L 2167.246094 2937.808594 L 2104.804688 2820.984375 L 2028.074219 2704.628906 L 1932.324219 2570.054688 L 1897.429688 2533.71875 L 1889.367188 2523.621094 L 1841.425781 2487.277344 L 1774.972656 2450.703125 L 1706.238281 2408.964844 L 1737.660156 2413.234375 L 1777.296875 2410.789063 L 1795.429688 2408.824219 L 1784.722656 2396.164063 L 1731.253906 2399.632813 L 1698.117188 2394.527344 L 1648.539063 2384.730469 L 1598.484375 2373.6875 L 1562.164063 2355.773438 L 1523.242188 2330.1875 L 1472.28125 2286.878906 L 1417.566406 2239.582031 L 1390.679688 2215.859375 L 1355.898438 2185.875 L 1339.273438 2174.636719 L 1329.871094 2168.234375 L 1322.597656 2163.84375 L 1322.214844 2163.601563 L 1321.515625 2163.246094 L 1292.480469 2145.75 L 1255.492188 2121.9375 L 1208.226563 2078.523438 L 1209.230469 2067.351563 L 1239.972656 2032.046875 L 1269.371094 1991.363281 L 1292.40625 1954.007813 L 1279.433594 1941.03125 L 1327.011719 1842.171875 L 1339.484375 1835.082031 L 1366.753906 1832.292969 L 1401.703125 1832.683594 L 1419.742188 1838.46875 L 1456.257813 1876.523438 L 1494.144531 1925.429688 L 1509.613281 1886.777344 L 1505.203125 1830.4375 L 1520.761719 1826.09375 L 1538.464844 1817.785156 L 1533.6875 1799.539063 L 1509.785156 1708.246094 L 1504.941406 1690.003906 L 1504.160156 1688.953125 L 1499.582031 1671.207031 L 1490.824219 1672.023438 L 1462.796875 1674.707031 L 1443.929688 1643.957031 L 1425.472656 1650.082031 L 1418.882813 1652.222656 L 1412.4375 1632.703125 L 1406.539063 1614.800781 L 1400.085938 1595.15625 L 1393.976563 1596.398438 L 1391.191406 1582.1875 L 1388.183594 1566.726563 L 1385.320313 1552.011719 L 1383.511719 1516.8125 L 1381.007813 1516.945313 L 1380.777344 1504.363281 L 1380.292969 1478.253906 L 1383.117188 1478.234375 L 1382.851563 1464.394531 L 1382.71875 1457.472656 L 1382.398438 1441.742188 L 1379.578125 1441.761719 L 1379.121094 1416.59375 L 1378.660156 1391.425781 L 1384.304688 1391.328125 L 1409.882813 1390.855469 L 1409.441406 1366.378906 L 1410.28125 1353.828125 L 1365.222656 1350.890625 L 1365.789063 1342.0625 L 1368.644531 1298.734375 L 1413.640625 1301.734375 L 1448.078125 1303.96875 L 1451.808594 1253.816406 L 1454.96875 1241.261719 L 1463.078125 1208.613281 L 1481.957031 1177.355469 L 1478.222656 1156.121094 L 1473.304688 1121.890625 L 1516.722656 1115.558594 L 1543.910156 1112.015625 L 1567.40625 1113.363281 L 1596.03125 1118.59375 L 1626.933594 1117.714844 L 1638.355469 1115.753906 L 1657.234375 1111.253906 L 1656.996094 1102.824219 L 1629.421875 1103.605469 L 1613.75 1104.050781 L 1598.082031 1104.496094 L 1597.851563 1096.320313 L 1597.796875 1094.433594 L 1565.769531 1095.34375 L 1531.296875 1096.320313 L 1506.226563 1097.03125 L 1480.089844 1097.773438 L 1455.65625 1098.847656 L 1441.871094 1099.425781 L 1442.042969 1103.199219 L 1442.21875 1107.285156 L 1425.304688 1108.019531 L 1425.378906 1103.925781 L 1425.457031 1100.144531 L 1426.039063 1067.394531 L 1425.238281 1047.902344 L 1425.460938 1046.824219 L 1425.632813 1046.316406 L 1425.804688 1045.746094 L 1426.28125 1044.726563 L 1426.816406 1043.703125 L 1427.414063 1042.742188 L 1428.875 1041.0625 L 1429.730469 1040.347656 L 1430.714844 1039.625 L 1431.640625 1039.03125 L 1432.691406 1038.5625 L 1433.746094 1038.15625 L 1434.804688 1037.871094 L 1439.554688 1037.234375 L 1446.429688 1036.347656 L 1452.929688 1035.53125 L 1477.363281 1034.460938 L 1504.40625 1032.496094 L 1529.449219 1030.714844 L 1563.875 1028.164063 L 1595.863281 1025.871094 L 1628.515625 1028.089844 L 1654.871094 1027.34375 L 1654.78125 1024.199219 L 1646.242188 995.042969 L 1637.910156 997.542969 L 1629.929688 970.386719 L 1582.214844 984.457031 L 1583.613281 1007.332031 L 1523.441406 1011.183594 L 1523.605469 1017.03125 L 1429.277344 1019.835938 L 1419.878906 1020.167969 L 1419.613281 1010.730469 L 1402.0625 1011.230469 L 1401.378906 989.214844 L 1360.996094 1007.484375 L 1294.644531 1019.066406 L 1297.742188 1035.46875 L 1266.984375 1041.378906 L 1259.914063 1004.25 L 1290.738281 998.402344 L 1287.570313 979.542969 L 1253.875 988.054688 L 1245.464844 954.488281 L 1242.078125 934.503906 L 1229.179688 897.601563 L 1213.566406 866.632813 L 1180.691406 806.316406 L 1172.617188 784.761719 L 1165.933594 759.144531 L 1158.9375 715.589844 L 1156.207031 674.433594 L 1147.378906 639.433594 L 1138.609375 613.242188 L 1107.769531 545.058594 L 1082.695313 567.867188 L 1082.617188 585.054688 L 1076.644531 598.003906 L 1070.523438 605.542969 L 1053.003906 616.050781 L 1016.730469 646.605469 L 982.871094 702.648438 L 963.441406 761.054688 L 951.5625 817.984375 L 946.914063 871.1875 L 945.421875 902.832031 L 937.296875 928.304688 L 924.328125 951.082031 L 910.3125 970.117188 L 903.894531 978.292969 L 892.570313 992.714844 L 877.902344 1015.355469 L 871.800781 1043.667969 L 876.296875 1114.109375 L 793.804688 1122.746094 L 775.183594 1018.585938 L 741.414063 1002.234375 L 733.203125 1009.140625 L 734.101563 1034.296875 L 701.515625 1035.410156 L 672.1875 1038.699219 L 632.007813 1055.265625 L 633.945313 1077.179688 L 608.917969 1079.402344 L 605.320313 1094.234375 L 606.539063 1101.816406 L 667.160156 1091.660156 L 663.757813 1071.171875 L 676.117188 1069.058594 L 672.496094 1047.378906 L 706.519531 1041.628906 L 710.144531 1063.367188 L 716.324219 1062.3125 L 737.367188 1058.816406 L 759.902344 1055.03125 L 770.550781 1118.9375 L 748.011719 1122.726563 L 726.976563 1126.28125 L 674.40625 1135.078125 L 675.621094 1142.535156 L 633.605469 1149.582031 L 614.757813 1150.8125 L 613.785156 1145.238281 L 595.242188 1148.34375 L 582.882813 1150.457031 L 584.839844 1162.046875 L 610.015625 1191.738281 L 610.15625 1174.421875 L 657.210938 1174.847656 L 656.835938 1212.628906 L 686.160156 1209.339844 L 700.988281 1283.515625 L 738 1294.742188 L 749.492188 1366.304688 L 784.382813 1400.1875 L 812.25 1425.269531 L 839.53125 1449.546875 L 885.921875 1490.847656 L 904.925781 1512.96875 L 935.21875 1510.660156 L 930.570313 1501.414063 L 964.148438 1484.40625 L 997.730469 1467.335938 L 1014.675781 1501.039063 L 981.09375 1518.109375 L 959.511719 1529.042969 L 968.617188 1547.230469 L 985.917969 1528.988281 L 991.398438 1534.183594 L 1012.960938 1511.410156 L 1018.4375 1516.605469 L 1059.503906 1555.917969 L 1106.046875 1600.359375 L 1123.390625 1612.582031 L 1151.269531 1633.636719 L 1175.882813 1650.058594 L 1202.988281 1668.171875 L 1239.90625 1689.347656 L 1279 1716.5625 L 1300.972656 1746.21875 L 1307.15625 1789.792969 L 1308.007813 1831.066406 L 1256.046875 1928.160156 L 1254.023438 1931.746094 L 1254.234375 1931.851563 L 1239.324219 1965.035156 L 1217.117188 2001.585938 L 1159.714844 2088.777344 L 1157.34375 2092.382813 L 1110.582031 2057.675781 L 1097.121094 2074.15625 Z M 741.695313 1161.179688 L 736.730469 1198.585938 L 699.457031 1193.667969 L 704.421875 1156.257813 Z M 714.863281 1219.542969 L 738.886719 1214.957031 L 748.742188 1213.039063 L 750.589844 1222.933594 L 755.078125 1246.414063 L 756.988281 1256.304688 L 749.710938 1271.808594 L 725.691406 1276.394531 L 723.109375 1262.808594 L 713.253906 1264.722656 L 711.34375 1254.832031 L 706.917969 1231.351563 L 705.007813 1221.460938 Z M 902.484375 1361.496094 L 903.632813 1360.210938 L 940.773438 1394.882813 L 921.257813 1415.9375 L 942.449219 1435.542969 L 921.636719 1458.230469 L 900.152344 1481.628906 L 895.582031 1477.417969 L 874.328125 1457.8125 L 869.753906 1453.535156 L 837.421875 1423.671875 L 805.15625 1393.867188 L 792.464844 1382.144531 L 787.828125 1377.867188 L 767.992188 1359.546875 L 772.496094 1354.695313 L 767.199219 1349.183594 L 764.054688 1342.285156 L 762.503906 1334.019531 L 762.441406 1325.019531 L 763.410156 1319.386719 L 766.382813 1313.636719 L 775.472656 1304.441406 L 798.785156 1326 L 809.191406 1314.625 L 826.171875 1296.136719 L 863.332031 1330.460938 L 902.101563 1361.929688 Z M 786.410156 1187.417969 L 813.363281 1166.761719 L 825.828125 1157.214844 L 841.007813 1177.242188 L 857.464844 1164.6875 L 863.910156 1159.722656 L 890.164063 1194.226563 L 920.195313 1233.789063 L 913.75 1238.757813 L 927.039063 1256.257813 L 946.515625 1281.828125 L 965.214844 1306.414063 L 967.105469 1308.941406 L 970.945313 1313.996094 L 943.070313 1335.371094 L 944.050781 1336.730469 L 924.34375 1351.957031 L 918.222656 1343.945313 L 914.234375 1347.019531 L 894.695313 1321.511719 L 893.035156 1322.753906 L 885.484375 1328.574219 L 865.023438 1303.722656 L 849.769531 1287.726563 L 828.742188 1265.03125 L 789.125 1216.992188 L 781.242188 1206.578125 L 779.839844 1192.453125 Z M 982.277344 2727.527344 L 960.328125 2749.929688 L 935.746094 2725.703125 L 957.695313 2703.234375 Z M 918.613281 990.90625 L 936.730469 968.296875 L 953.15625 945.667969 L 962.832031 928.460938 L 973.878906 926.511719 L 982.394531 932.625 L 988.289063 948.070313 L 992.105469 967.730469 L 992.644531 984.648438 L 992.351563 1003.164063 L 992.605469 1032.238281 L 997.839844 1064.324219 L 1007.484375 1088.285156 L 1021.613281 1099.96875 L 1041.007813 1109.238281 L 1057.234375 1117.339844 L 1066.152344 1128.859375 L 1070.96875 1148.488281 L 1075.101563 1177.078125 L 1078.175781 1203.804688 L 1081.476563 1227.382813 L 1079.347656 1240.851563 L 1072.363281 1260.125 L 1059.734375 1281.632813 L 1040.785156 1301.5 L 1019.863281 1313.550781 L 1007.175781 1315.230469 L 992.902344 1298.515625 L 970.21875 1268.1875 L 937.976563 1212.574219 L 921.03125 1172.199219 L 905.015625 1120.34375 L 899.921875 1071.007813 L 900.480469 1030.765625 L 903.59375 1018.84375 L 909.839844 1004.5625 Z M 1011.398438 2765.917969 L 1018.683594 2763.949219 L 1024.722656 2762.328125 L 1042.277344 2757.613281 L 1055.597656 2754.023438 L 1057.140625 2759.832031 L 1075.320313 2754.910156 L 1083.390625 2785.335938 L 1106.175781 2779.214844 L 1113.105469 2809.230469 L 1126.417969 2860.914063 L 1132.460938 2894.984375 L 1133.511719 2901.1875 L 1105.742188 2906.128906 L 1088.453125 2909.203125 L 1036.761719 2915.707031 L 1030.574219 2916.511719 L 1021.859375 2905.492188 L 1013.382813 2865.128906 L 1006.527344 2866.710938 L 999.371094 2835.4375 L 1001.867188 2834.863281 L 994.992188 2809.0625 L 993.375 2802.9375 L 991.414063 2795.691406 L 985.3125 2772.890625 Z M 983.199219 2637.800781 L 1004.113281 2618.761719 L 1025.15625 2642.082031 L 1004.242188 2661.121094 L 996.148438 2652.160156 Z M 1000.554688 1325.113281 L 1028.800781 1359.125 L 1039.414063 1370.65625 L 1059.347656 1392.4375 L 1051.953125 1401.652344 L 1039.917969 1413.007813 L 1024.996094 1422.183594 L 1015.90625 1424.644531 L 1006.546875 1424.15625 L 999.648438 1419.753906 L 984.292969 1400.171875 L 954.796875 1359.714844 Z M 1046.820313 2734.066406 L 1015.988281 2739.601563 L 1010.472656 2708.597656 L 1041.367188 2703.0625 Z M 1024.214844 869.621094 L 1005.972656 898.96875 L 976.726563 880.664063 L 994.96875 851.3125 Z M 983.222656 812.933594 L 989.46875 789.839844 L 997.707031 759.453125 L 1003.445313 738.199219 L 1021.585938 743.160156 L 1029.601563 713.722656 L 1041.042969 716.863281 L 1043.542969 707.601563 L 1020.808594 695.59375 L 1041.523438 656.035156 L 1064.257813 668.042969 L 1074.007813 640.195313 L 1081.636719 632.613281 L 1090.824219 631.40625 L 1099.199219 634.882813 L 1108.300781 648.410156 L 1115.421875 671.753906 L 1117.28125 688.824219 L 1115.59375 704.546875 L 1107.355469 734.933594 L 1115.824219 737.210938 L 1126.699219 740.175781 L 1113.007813 790.863281 L 1099.65625 840.09375 L 1088.785156 837.128906 L 1051.234375 826.863281 L 1030.058594 821.105469 L 1028.925781 825.355469 L 1026.65625 833.855469 L 1005.160156 827.984375 L 993.027344 824.738281 L 980.953125 821.433594 Z M 1089.324219 918.507813 L 1078.515625 980.128906 L 1079.703125 1011.132813 L 1080.613281 1036.726563 L 1080.769531 1039.996094 L 1081.804688 1067.792969 L 1082.472656 1087.035156 L 1083.042969 1102.757813 L 1045.445313 1104.203125 L 1026.078125 1089.203125 L 1025.410156 1069.898438 L 1024.359375 1041.597656 L 1024.21875 1038.894531 L 1023.3125 1013.300781 L 1022.121094 982.300781 L 1006.457031 982.871094 L 1005.738281 964.003906 L 1005.769531 938.445313 L 1009.644531 929.082031 L 1017.644531 919.160156 L 1030.59375 906.769531 L 1049.074219 892.644531 L 1063.183594 879.089844 L 1073.296875 870.742188 L 1085.636719 870.078125 L 1090.898438 876.476563 L 1093.644531 891.632813 Z M 1106.914063 2596.328125 L 1114.203125 2634.644531 L 1121.726563 2674.589844 L 1126.832031 2708.816406 L 1147.257813 2705.71875 L 1152.675781 2742.136719 L 1155.925781 2763.953125 L 1128.691406 2768.0625 L 1112.578125 2770.472656 L 1110.078125 2770.855469 L 1102.457031 2749.734375 L 1089.667969 2714.40625 L 1084.566406 2680.179688 L 1077.269531 2641.671875 L 1069.976563 2603.355469 Z M 1085.789063 1471.507813 L 1053.585938 1483.945313 L 1040.109375 1448.695313 L 1072.3125 1436.261719 Z M 1067.5625 1490.28125 L 1101.347656 1473.773438 L 1119.804688 1461.035156 L 1143.566406 1478.367188 L 1160.664063 1490.785156 L 1188.78125 1511.328125 L 1216.472656 1536.855469 L 1232.214844 1552.269531 L 1245.144531 1566.003906 L 1270.425781 1592.796875 L 1262.945313 1607.738281 L 1236.085938 1638.464844 L 1229.886719 1645.566406 L 1208.664063 1626.90625 L 1199.207031 1618.613281 L 1193.007813 1625.652344 L 1162.390625 1598.695313 L 1147.660156 1599.050781 L 1124.832031 1579.179688 L 1101.089844 1560.339844 L 1073.1875 1534.0625 L 1049.304688 1505.71875 Z M 1079.25 2531.707031 L 1089.707031 2493.390625 L 1103.035156 2465.4375 L 1109.8125 2454.480469 L 1123.785156 2433.878906 L 1136.585938 2416.265625 L 1150.394531 2405.550781 L 1195.160156 2378.15625 L 1205.464844 2378.746094 L 1216.4375 2387.433594 L 1227.542969 2400.90625 L 1239.703125 2422.90625 L 1245.113281 2432.257813 L 1251.125 2447.574219 L 1254.121094 2462.53125 L 1254.917969 2506.449219 L 1251.402344 2521.84375 L 1265.164063 2565.015625 L 1254.769531 2592.378906 L 1260.539063 2690.226563 L 1265.445313 2741.769531 L 1259.742188 2781.964844 L 1252.078125 2799.429688 L 1235.492188 2818.410156 L 1215.660156 2831.4375 L 1194.988281 2823.460938 L 1177.390625 2811.183594 L 1175.417969 2792.417969 L 1174.734375 2770.40625 L 1173.433594 2750.925781 L 1172.359375 2730.5625 L 1172.4375 2715.640625 L 1171.628906 2693.632813 L 1159.78125 2676.027344 L 1145.289063 2647.105469 L 1136.414063 2590.328125 L 1148.691406 2565.363281 L 1079.722656 2566.316406 Z M 1089.566406 1298.476563 L 1095.257813 1293.53125 L 1101.445313 1288.191406 L 1099.304688 1285.734375 L 1093.210938 1278.667969 L 1107.414063 1266.304688 L 1128.160156 1290.265625 L 1145.214844 1309.988281 L 1171.550781 1345.25 L 1179.175781 1355.417969 L 1183.164063 1352.15625 L 1212.21875 1328.167969 L 1232.324219 1311.605469 L 1259.054688 1289.570313 L 1273.238281 1305.472656 L 1277.886719 1301.246094 L 1300.402344 1325.535156 L 1324.46875 1371.5 L 1305.644531 1393.5625 L 1307.265625 1395.40625 L 1286.28125 1414.320313 L 1282.136719 1409.652344 L 1257.460938 1382.089844 L 1235.023438 1400.605469 L 1215.082031 1376.304688 L 1207.847656 1382.304688 L 1195.710938 1392.277344 L 1221.796875 1425.34375 L 1191.304688 1449.5625 L 1168.296875 1467.90625 L 1161.429688 1473.390625 L 1132.675781 1436.9375 L 1130.15625 1438.835938 L 1116.464844 1420.464844 L 1118.984375 1418.570313 L 1102.816406 1396.933594 L 1092.320313 1382.816406 L 1084.761719 1372.769531 L 1076.480469 1361.671875 L 1051.90625 1328.753906 Z M 1091.410156 2133.332031 L 1103.890625 2104.460938 L 1132.660156 2116.929688 L 1145.070313 2123.3125 L 1151.242188 2130.816406 L 1154.816406 2150.796875 L 1157.617188 2172.371094 L 1087.703125 2142 Z M 1097.457031 1146.855469 L 1101.78125 1099.957031 L 1116.046875 1056.433594 L 1098.96875 1046.96875 L 1097.28125 1020.453125 L 1099.921875 991.796875 L 1102.933594 951.800781 L 1103.359375 946.878906 L 1105.027344 928.136719 L 1105.355469 924.285156 L 1109.390625 887.21875 L 1113.484375 861.039063 L 1115.863281 852.035156 L 1119.730469 844.496094 L 1125.054688 837.671875 L 1134.441406 830.164063 L 1141.769531 827.566406 L 1147.277344 827.03125 L 1153.394531 828.304688 L 1160.929688 832.9375 L 1166.65625 838.125 L 1172.960938 845.941406 L 1177.015625 851.746094 L 1181.863281 861.238281 L 1191.28125 883.824219 L 1198.078125 900.121094 L 1205.757813 921.183594 L 1213.65625 947.648438 L 1216.792969 947.6875 L 1216.660156 974.128906 L 1213.507813 973.589844 L 1209.703125 1007.628906 L 1202.570313 1030.492188 L 1214.53125 1034.246094 L 1209.125 1051.648438 L 1201.476563 1076.289063 L 1192.910156 1103.917969 L 1184.152344 1100.390625 L 1178.960938 1125.339844 L 1171.574219 1148.085938 L 1174.550781 1149.070313 L 1167.675781 1169.976563 L 1164.382813 1180.078125 L 1161.40625 1179.09375 L 1137.539063 1171.273438 L 1126.265625 1167.503906 L 1108.351563 1161.652344 L 1096.445313 1157.710938 Z M 1172.351563 1249.035156 L 1146.785156 1276.707031 L 1119.152344 1251.050781 L 1144.71875 1223.382813 Z M 1227.960938 2155.515625 L 1244.28125 2164.808594 L 1250.847656 2168.589844 L 1256.269531 2171.707031 L 1236.429688 2206.707031 L 1230.949219 2203.585938 L 1224.441406 2199.804688 L 1212.457031 2192.96875 L 1204.691406 2206.664063 L 1188.375 2195.292969 L 1180.691406 2176.5 L 1185.046875 2157.363281 L 1198.824219 2138.84375 Z M 1229.140625 1287.648438 L 1189.371094 1323.214844 L 1164.367188 1295.09375 L 1204.070313 1259.46875 Z M 1245.582031 2339.898438 L 1243.792969 2349.957031 L 1240.007813 2353.527344 L 1231.242188 2354.21875 L 1221.332031 2351.917969 L 1213.921875 2347.15625 L 1204.300781 2333.011719 L 1200.90625 2314.917969 L 1198.820313 2298.796875 L 1205.375 2288.792969 L 1215.53125 2286.425781 L 1224.757813 2286.605469 L 1236.128906 2291.632813 L 1244.347656 2322.8125 Z M 1252.851563 1174.167969 L 1233.023438 1198.464844 L 1194.175781 1166.582031 L 1214.0625 1142.21875 Z M 1237 1457.265625 L 1266.628906 1429.230469 L 1279.269531 1441.460938 L 1294.503906 1425.605469 L 1324.125 1446.105469 L 1291.125 1508.230469 L 1289.460938 1511.488281 L 1301.148438 1525.574219 L 1329.246094 1565.441406 L 1326.101563 1571.886719 L 1321 1575.496094 L 1305.625 1586.382813 L 1295.417969 1593.660156 L 1265.300781 1551.078125 L 1234.324219 1513.683594 L 1209.324219 1483.484375 Z M 1250.078125 1220.453125 L 1273.746094 1241.121094 L 1280.921875 1248.660156 L 1286.28125 1256.3125 L 1290.574219 1266.265625 L 1290.730469 1271.800781 L 1289.234375 1274.359375 L 1286.386719 1275.636719 L 1279.894531 1274.5625 L 1267.304688 1266.359375 L 1257.28125 1260.097656 L 1233.617188 1239.492188 Z M 1302.214844 2368.570313 L 1329.683594 2366.214844 L 1345.832031 2376.078125 L 1348.3125 2392.878906 L 1351.097656 2411.558594 L 1356.363281 2447.039063 L 1357.292969 2453.308594 L 1348.054688 2463.832031 L 1317.703125 2473 L 1290.15625 2481.402344 L 1286.824219 2458.960938 L 1283.703125 2459.425781 L 1281.847656 2447.015625 L 1278.160156 2447.558594 L 1274.449219 2422.675781 L 1273.054688 2413.335938 L 1266.859375 2371.585938 Z M 1339.210938 1122.003906 L 1318.5625 1123.050781 L 1299.761719 1123.710938 L 1294.8125 1123.851563 L 1294.433594 1121.65625 L 1273.03125 1121.195313 L 1267.507813 1121.039063 L 1261.609375 1074.242188 L 1317.277344 1068.570313 L 1317.394531 1072.722656 L 1341.28125 1072.074219 L 1342.871094 1030.800781 L 1380.769531 1032.3125 L 1380.875 1026.601563 L 1382.632813 1026.679688 L 1382.855469 1016.789063 L 1407.929688 1016.140625 L 1407.722656 1037.738281 L 1415.878906 1037.820313 L 1415.648438 1063.007813 L 1407.492188 1062.925781 L 1407.445313 1067.519531 L 1407.878906 1067.535156 L 1407.003906 1090.109375 L 1414.523438 1090.402344 L 1412.996094 1129.699219 L 1405.480469 1129.40625 L 1405.292969 1134.1875 L 1343.257813 1131.5 L 1343.597656 1122.167969 Z M 1362.890625 1188.039063 L 1326.878906 1198.945313 L 1315.046875 1159.8125 L 1351.058594 1148.90625 Z M 1405.035156 1732.875 L 1441.320313 1722.78125 L 1447.1875 1743.953125 L 1459.261719 1740.589844 L 1467.644531 1770.945313 L 1455.570313 1774.3125 L 1461.4375 1795.484375 L 1401.003906 1812.308594 L 1395.136719 1791.136719 L 1346.777344 1804.59375 L 1338.394531 1774.238281 L 1332.53125 1753.066406 Z M 1359.839844 1224.449219 L 1359.363281 1265.378906 L 1324.914063 1264.972656 L 1325.390625 1224.105469 Z M 1412.542969 2379.472656 L 1396.558594 2406.554688 L 1369.570313 2390.449219 L 1385.621094 2363.429688 Z M 1433.910156 1226.3125 L 1432.050781 1267.15625 L 1391.285156 1265.230469 L 1393.207031 1224.382813 Z M 1467.671875 1153.523438 L 1460.179688 1196.921875 L 1426.203125 1191.027344 L 1433.699219 1147.628906 Z M 1467.671875 1153.523438 "/>
<path style="fill:none;stroke-width:15;stroke-linecap:round;stroke-linejoin:round;stroke:rgb(89.803922%,89.803922%,89.803922%);stroke-opacity:1;stroke-miterlimit:10;" d="M 2376 3091.003906 L 2344.261719 3054.976563 L 2179 2811.269531 L 2094.285156 2687.316406 L 2001.378906 2575.738281 L 1905.316406 2467.097656 L 1875.347656 2433.191406 L 1695.636719 2210.101563 L 1608.882813 2115.09375 L 1513.839844 2024.207031 L 1408.464844 1951.078125 L 1261.21875 1872.566406 L 1152.332031 1799.019531 L 968.5 1732.953125 L 815.605469 1668.914063 L 689.625 1598.648438 L 547.058594 1520.136719 L 458.269531 1433.375 L 402.453125 1303.269531 L 326.03125 1148.339844 L 270.265625 989.285156 L 231.039063 865.328125 L 222.742188 764.09375 L 245.488281 664.957031 L 295.046875 596.789063 L 381.796875 555.46875 L 551.230469 489.332031 L 718.523438 448.011719 L 865.214844 396.414063 L 911.972656 379.003906 L 1057.339844 214.636719 L 1183.320313 55.578125 L 1216.957031 0 "/>
<path style="fill:none;stroke-width:15;stroke-linecap:round;stroke-linejoin:round;stroke:rgb(89.803922%,89.803922%,89.803922%);stroke-opacity:1;stroke-miterlimit:10;" d="M 798.5 3360 L 802.933594 3349.648438 L 830.664063 3292.882813 L 876.355469 3259.675781 L 983.257813 3155.089844 L 1018.566406 3065.113281 L 1101.65625 3014.570313 L 1165.359375 3007.648438 L 1244.273438 3012.472656 L 1322.476563 3006.949219 L 1426.324219 2968.847656 L 1508.039063 2934.242188 L 1618.804688 2875.378906 L 1668.667969 2796.449219 L 1714.359375 2750.097656 L 1743.464844 2692.628906 L 1790.527344 2635.164063 L 1841.765625 2601.257813 L 1890.914063 2511.210938 L 1905.316406 2467.097656 "/>
<path style="fill:none;stroke-width:0.5625;stroke-linecap:round;stroke-linejoin:round;stroke:rgb(49.803922%,49.803922%,49.803922%);stroke-opacity:1;stroke-miterlimit:10;" d="M 1153.300781 742.140625 L 1232.011719 686.558594 L 1298.207031 650.132813 L 1385.824219 645.9375 L 1514.195313 633.355469 L 1593.671875 624.964844 L 1684.339844 566.167969 L 1776.027344 505.96875 L 1858.554688 463.949219 L 1928.820313 423.332031 L 1956.347656 367.328125 L 1962.453125 269.378906 L 2010.332031 141.992188 L 2070.421875 70.609375 L 2147.863281 49.566406 L 2268.09375 13.210938 L 2300.292969 0 "/>
<path style="fill:none;stroke-width:0.5625;stroke-linecap:round;stroke-linejoin:round;stroke:rgb(49.803922%,49.803922%,49.803922%);stroke-opacity:1;stroke-miterlimit:10;" d="M 1452.476563 3360 L 1402.5625 3266.457031 L 1355.398438 3205.144531 L 1263.8125 3127.613281 L 1214.863281 3072.875 L 1193.800781 3033.515625 "/>
<path style="fill:none;stroke-width:0.5625;stroke-linecap:round;stroke-linejoin:round;stroke:rgb(49.803922%,49.803922%,49.803922%);stroke-opacity:1;stroke-miterlimit:10;" d="M 1193.800781 3033.515625 L 1181.539063 2987.863281 "/>
<path style="fill:none;stroke-width:0.5625;stroke-linecap:round;stroke-linejoin:round;stroke:rgb(49.803922%,49.803922%,49.803922%);stroke-opacity:1;stroke-miterlimit:10;" d="M 1181.539063 2987.863281 L 1161.695313 2906.699219 L 1166.171875 2883.417969 L 1195.785156 2854.753906 L 1253.636719 2823.015625 L 1278.160156 2753.035156 L 1268.695313 2659.144531 L 1271.089844 2591.539063 L 1280.804688 2544.210938 L 1260.402344 2425.429688 L 1209.066406 2358.945313 L 1189.628906 2321.890625 L 1188.40625 2279.734375 L 1178.027344 2188.710938 L 1175.941406 2149.488281 L 1185.507813 2077.691406 L 1199.246094 2048.046875 L 1250.175781 1968.976563 "/>
<path style="fill:none;stroke-width:0.5625;stroke-linecap:round;stroke-linejoin:round;stroke:rgb(49.803922%,49.803922%,49.803922%);stroke-opacity:1;stroke-miterlimit:10;" d="M 1250.175781 1968.976563 L 1320.035156 1834.394531 "/>
<path style="fill:none;stroke-width:0.5625;stroke-linecap:round;stroke-linejoin:round;stroke:rgb(49.803922%,49.803922%,49.803922%);stroke-opacity:1;stroke-miterlimit:10;" d="M 1320.035156 1834.394531 L 1322.527344 1795.3125 L 1302.785156 1702.332031 L 1305.027344 1662.269531 L 1317.441406 1621.023438 L 1356.617188 1588.371094 "/>
<path style="fill:none;stroke-width:0.5625;stroke-linecap:round;stroke-linejoin:round;stroke:rgb(49.803922%,49.803922%,49.803922%);stroke-opacity:1;stroke-miterlimit:10;" d="M 2058.820313 2506.179688 L 2069.558594 2462.203125 L 2061.265625 2428.296875 L 2073.324219 2327.066406 L 2087.671875 2286.304688 L 2129.191406 2209.332031 L 2162.058594 2140.261719 L 2200.929688 2062.097656 L 2246.976563 1971.492188 L 2299.082031 1889.207031 L 2376 1806.703125 "/>
<path style="fill:none;stroke-width:0.5625;stroke-linecap:round;stroke-linejoin:round;stroke:rgb(49.803922%,49.803922%,49.803922%);stroke-opacity:1;stroke-miterlimit:10;" d="M 2111.433594 2558.472656 L 2162.414063 2553.578125 L 2188.871094 2567.210938 L 2313.429688 2688.714844 L 2356.472656 2715.910156 L 2376 2702.34375 "/>
<path style="fill:none;stroke-width:0.5625;stroke-linecap:round;stroke-linejoin:round;stroke:rgb(49.803922%,49.803922%,49.803922%);stroke-opacity:1;stroke-miterlimit:10;" d="M 2376 2653.238281 L 2343.601563 2589.09375 L 2258.324219 2496.179688 L 2197.929688 2446.402344 L 2179.054688 2407.882813 L 2175.238281 2367.894531 L 2190.347656 2306.71875 L 2229.628906 2250.859375 L 2282.441406 2212.339844 L 2358.710938 2167.035156 L 2376 2174.769531 "/>
<path style="fill:none;stroke-width:0.5625;stroke-linecap:round;stroke-linejoin:round;stroke:rgb(49.803922%,49.803922%,49.803922%);stroke-opacity:1;stroke-miterlimit:10;" d="M 2376 2223.796875 L 2375.351563 2230.445313 L 2348.128906 2343.703125 L 2364.003906 2386.769531 L 2376 2396.519531 "/>
<path style="fill:none;stroke-width:1.875;stroke-linecap:round;stroke-linejoin:round;stroke:rgb(30.196078%,30.196078%,30.196078%);stroke-opacity:1;stroke-miterlimit:10;" d="M 1356.617188 1588.371094 L 1375.648438 1635.214844 L 1408.769531 1670.730469 L 1466.0625 1698.695313 L 1483.160156 1716.242188 L 1490.179688 1748.824219 L 1496.386719 1783.847656 L 1490.941406 1823.488281 L 1497.710938 1881.238281 L 1508.546875 1910.179688 L 1574.183594 1971.914063 L 1744.9375 2138.652344 L 1865.375 2278.40625 L 2009.0625 2456.679688 L 2058.820313 2506.179688 L 2111.433594 2558.472656 L 2188.261719 2634.882813 L 2288.089844 2747.71875 L 2376 2907.199219 "/>
<path style="fill:none;stroke-width:1.875;stroke-linecap:round;stroke-linejoin:round;stroke:rgb(30.196078%,30.196078%,30.196078%);stroke-opacity:1;stroke-miterlimit:10;" d="M 1153.300781 742.140625 L 1163.527344 799.890625 L 1207.386719 879.382813 L 1228.855469 935.800781 L 1235.421875 980.6875 L 1246.613281 1076.886719 L 1288.589844 1205.109375 L 1348.324219 1350.039063 L 1348.324219 1447.429688 L 1356.617188 1588.371094 "/>
<path style="fill:none;stroke-width:1.875;stroke-linecap:round;stroke-linejoin:round;stroke:rgb(30.196078%,30.196078%,30.196078%);stroke-opacity:1;stroke-miterlimit:10;" d="M 761.507813 0 L 777.191406 54.808594 L 784.667969 136.890625 L 807.972656 192.050781 L 852.796875 256.164063 "/>
<path style="fill:none;stroke-width:1.875;stroke-linecap:round;stroke-linejoin:round;stroke:rgb(30.196078%,30.196078%,30.196078%);stroke-opacity:1;stroke-miterlimit:10;" d="M 852.796875 256.164063 L 966.058594 381.871094 "/>
<path style="fill:none;stroke-width:1.875;stroke-linecap:round;stroke-linejoin:round;stroke:rgb(30.196078%,30.196078%,30.196078%);stroke-opacity:1;stroke-miterlimit:10;" d="M 966.058594 381.871094 L 1093.566406 553.652344 L 1138.339844 646.007813 L 1153.300781 742.140625 "/>
<path style="fill:none;stroke-width:1.875;stroke-linecap:round;stroke-linejoin:round;stroke:rgb(30.196078%,30.196078%,30.196078%);stroke-opacity:1;stroke-miterlimit:10;" d="M 834.277344 1962.894531 L 743.203125 1924.371094 "/>
<path style="fill:none;stroke-width:1.875;stroke-linecap:round;stroke-linejoin:round;stroke:rgb(30.196078%,30.196078%,30.196078%);stroke-opacity:1;stroke-miterlimit:10;" d="M 743.203125 1924.371094 L 701.582031 1922.34375 L 600.582031 2000.785156 L 593.054688 2017.144531 L 596.460938 2035.601563 L 687.945313 2149.558594 "/>
<path style="fill:none;stroke-width:1.875;stroke-linecap:round;stroke-linejoin:round;stroke:rgb(30.196078%,30.196078%,30.196078%);stroke-opacity:1;stroke-miterlimit:10;" d="M 743.203125 1924.371094 L 592.390625 1708.761719 L 542.578125 1665.066406 L 435.425781 1600.257813 "/>
<path style="fill:none;stroke-width:1.875;stroke-linecap:round;stroke-linejoin:round;stroke:rgb(30.196078%,30.196078%,30.196078%);stroke-opacity:1;stroke-miterlimit:10;" d="M 619.003906 1693.730469 L 745.238281 1873.195313 L 834.277344 1962.894531 L 878.289063 2003.164063 L 916.5 2034.203125 L 1031.136719 2128.375 L 1064.257813 2130.472656 L 1090.511719 2149.910156 L 1138.289063 2167.945313 L 1178.027344 2188.710938 "/>
<path style="fill:none;stroke-width:1.875;stroke-linecap:round;stroke-linejoin:round;stroke:rgb(30.196078%,30.196078%,30.196078%);stroke-opacity:1;stroke-miterlimit:10;" d="M 1209.066406 2358.945313 L 1118.34375 2423.960938 L 1099.214844 2454.652344 L 1073.265625 2520.160156 L 1051.4375 2608.878906 "/>
<path style="fill:none;stroke-width:1.875;stroke-linecap:round;stroke-linejoin:round;stroke:rgb(30.196078%,30.196078%,30.196078%);stroke-opacity:1;stroke-miterlimit:10;" d="M 1051.4375 2608.878906 L 1080.132813 2728.984375 L 1100.585938 2770.722656 L 1133.355469 2789.175781 L 1166.171875 2883.417969 "/>
<path style="fill:none;stroke-width:1.875;stroke-linecap:round;stroke-linejoin:round;stroke:rgb(30.196078%,30.196078%,30.196078%);stroke-opacity:1;stroke-miterlimit:10;" d="M 1051.4375 2608.878906 L 1028.945313 2648.097656 L 999.945313 2702.699219 L 972.621094 2770.929688 L 968.90625 2874.816406 L 946.367188 2963.535156 "/>
<path style="fill:none;stroke-width:2.625;stroke-linecap:round;stroke-linejoin:round;stroke:rgb(20%,20%,20%);stroke-opacity:1;stroke-miterlimit:10;" d="M 1356.617188 1588.371094 L 1375.648438 1635.214844 L 1408.769531 1670.730469 L 1466.0625 1698.695313 L 1483.160156 1716.242188 L 1490.179688 1748.824219 L 1496.386719 1783.847656 L 1490.941406 1823.488281 L 1497.710938 1881.238281 L 1508.546875 1910.179688 L 1574.183594 1971.914063 L 1744.9375 2138.652344 L 1865.375 2278.40625 L 2009.0625 2456.679688 L 2058.820313 2506.179688 L 2111.433594 2558.472656 L 2188.261719 2634.882813 L 2288.089844 2747.71875 L 2376 2907.199219 "/>
<path style="fill:none;stroke-width:2.625;stroke-linecap:round;stroke-linejoin:round;stroke:rgb(20%,20%,20%);stroke-opacity:1;stroke-miterlimit:10;" d="M 1153.300781 742.140625 L 1163.527344 799.890625 L 1207.386719 879.382813 L 1228.855469 935.800781 L 1235.421875 980.6875 L 1246.613281 1076.886719 L 1288.589844 1205.109375 L 1348.324219 1350.039063 L 1348.324219 1447.429688 L 1356.617188 1588.371094 "/>
<path style="fill:none;stroke-width:2.625;stroke-linecap:round;stroke-linejoin:round;stroke:rgb(20%,20%,20%);stroke-opacity:1;stroke-miterlimit:10;" d="M 761.507813 0 L 777.191406 54.808594 L 784.667969 136.890625 L 807.972656 192.050781 L 852.796875 256.164063 "/>
<path style="fill:none;stroke-width:2.625;stroke-linecap:round;stroke-linejoin:round;stroke:rgb(20%,20%,20%);stroke-opacity:1;stroke-miterlimit:10;" d="M 852.796875 256.164063 L 966.058594 381.871094 "/>
<path style="fill:none;stroke-width:2.625;stroke-linecap:round;stroke-linejoin:round;stroke:rgb(20%,20%,20%);stroke-opacity:1;stroke-miterlimit:10;" d="M 966.058594 381.871094 L 1093.566406 553.652344 L 1138.339844 646.007813 L 1153.300781 742.140625 "/>
</g>
</svg>
