<svg xmlns="http://www.w3.org/2000/svg" xmlns:xlink="http://www.w3.org/1999/xlink" width="3168" height="4480" version="1.1" viewBox="0 0 2376 3360"><g id="surface86"><rect width="2376" height="3360" x="0" y="0" style="fill:#fff;fill-opacity:1;stroke:none"/><rect width="2376" height="3360" x="0" y="0" style="fill:#fff;fill-opacity:1;stroke:none"/><path style="fill:none;stroke-width:.75;stroke-linecap:round;stroke-linejoin:round;stroke:#fff;stroke-opacity:1;stroke-miterlimit:10" d="M 0 3360 L 2376 3360 L 2376 0 L 0 0 Z M 0 3360"/><path style="fill:none;stroke-width:11.25;stroke-linecap:round;stroke-linejoin:round;stroke:#e5e5e5;stroke-opacity:1;stroke-miterlimit:10" d="M 1883.90625 1506.277344 L 1896.679688 1457.6875 L 1871.785156 1342.777344 L 1825.8125 1208.726563 L 1823.90625 1162.746094 L 1869.859375 1053.597656 L 1959.875 986.570313 L 2021.167969 948.257813 L 2103.515625 946.328125 L 2189.699219 909.945313 L 2229.929688 856.324219 L 2256.730469 678.214844 L 2235.671875 597.78125 L 2206.941406 574.804688 L 2168.640625 565.207031 L 2114.585938 543.585938 L 2101.609375 524.988281 L 2084.363281 454.125 L 2070.953125 308.589844 L 2036.484375 149.621094 L 2034.578125 51.945313 L 2057.085938 0"/><path style="fill:none;stroke-width:11.25;stroke-linecap:round;stroke-linejoin:round;stroke:#e5e5e5;stroke-opacity:1;stroke-miterlimit:10" d="M 1788.492188 1806.050781 L 1786.21875 1764.941406"/><path style="fill:none;stroke-width:11.25;stroke-linecap:round;stroke-linejoin:round;stroke:#e5e5e5;stroke-opacity:1;stroke-miterlimit:10" d="M 1874.101563 1543.175781 L 1883.90625 1506.277344"/><path style="fill:none;stroke-width:11.25;stroke-linecap:round;stroke-linejoin:round;stroke:#e5e5e5;stroke-opacity:1;stroke-miterlimit:10" d="M 1786.21875 1764.941406 L 1818.164063 1695.171875 L 1874.101563 1543.175781"/><path style="fill:none;stroke-width:11.25;stroke-linecap:round;stroke-linejoin:round;stroke:#e5e5e5;stroke-opacity:1;stroke-miterlimit:10" d="M 1214.382813 3360 L 1205.304688 3317.335938 L 1218.695313 3244.554688 L 1251.257813 3137.296875 L 1258.925781 3053.039063 L 1274.246094 2934.308594 L 1276.152344 2836.617188 L 1285.726563 2779.167969 L 1318.289063 2698.742188 L 1391.0625 2530.199219 L 1409.128906 2500.316406 L 1440.871094 2447.839844 L 1471.503906 2398.058594 L 1546.203125 2342.507813 L 1641.964844 2285.058594 L 1708.996094 2221.84375 L 1772.191406 2129.914063 L 1789.4375 2013.105469 L 1795.179688 1900.105469 L 1788.492188 1806.050781"/><path style="fill:none;stroke-width:.5625;stroke-linecap:round;stroke-linejoin:round;stroke:#7f7f7f;stroke-opacity:1;stroke-miterlimit:10" d="M 1445.792969 1769.34375 L 1486.554688 1770.515625 L 1577.332031 1766.082031 L 1701.019531 1787.046875 L 1769.261719 1791.859375 L 1809.347656 1792.238281 L 1857.535156 1792.675781 L 1926.574219 1794.277344 L 1965.085938 1799.089844 L 1999.617188 1809.53125 L 2055.429688 1832.808594 L 2376 1980.375"/><path style="fill:none;stroke-width:.5625;stroke-linecap:round;stroke-linejoin:round;stroke:#7f7f7f;stroke-opacity:1;stroke-miterlimit:10" d="M 1445.792969 1769.34375 L 1444.457031 1816.957031 L 1397.625 1880.144531 L 1315.296875 2284.40625 L 1307.730469 2321.601563 L 1304.714844 2330.464844 L 1295.691406 2356.921875 L 1290.875 2420.324219 L 1281.132813 2421.875 L 1260.917969 2506.707031 L 1220.070313 2667.503906"/><path style="fill:none;stroke-width:.5625;stroke-linecap:round;stroke-linejoin:round;stroke:#7f7f7f;stroke-opacity:1;stroke-miterlimit:10" d="M 1283.574219 2273.339844 L 1188.203125 2101.90625 L 1180.925781 2088.828125 L 1151.355469 2049.8125 L 1098.25 1979.6875 L 1062.140625 1897.003906 L 1033 1769.996094 L 1027.589844 1746.371094 L 1008.621094 1645.628906 L 998.121094 1622.816406 L 984.28125 1611.992188"/><path style="fill:none;stroke-width:.5625;stroke-linecap:round;stroke-linejoin:round;stroke:#7f7f7f;stroke-opacity:1;stroke-miterlimit:10" d="M 893.175781 1661.316406 L 889.320313 1680.570313 L 868.570313 1701.234375 L 857.457031 1709.199219 L 785.6875 1801.59375 L 783.269531 1804.691406 L 772.175781 1815.296875 L 770.78125 1820.761719 L 723.414063 1862.5"/><path style="fill:none;stroke-width:.5625;stroke-linecap:round;stroke-linejoin:round;stroke:#7f7f7f;stroke-opacity:1;stroke-miterlimit:10" d="M 1295.691406 2356.921875 L 1283.574219 2273.339844 L 1280.457031 2251.777344 L 1249.515625 2087.363281 L 1237.007813 2020.828125 L 1232.292969 1995.730469 L 1202.867188 1678.992188 L 1180.882813 1591.003906 L 1177.6875 1583.0625 L 1165.609375 1568.488281 L 1158.164063 1560.414063 L 1151.398438 1537.464844"/><path style="fill:none;stroke-width:.5625;stroke-linecap:round;stroke-linejoin:round;stroke:#7f7f7f;stroke-opacity:1;stroke-miterlimit:10" d="M 401.953125 0 L 435.378906 124.957031 L 506.734375 387.667969 L 529.433594 523.875 L 602.230469 742.035156 L 617.9375 768.4375"/><path style="fill:none;stroke-width:.5625;stroke-linecap:round;stroke-linejoin:round;stroke:#7f7f7f;stroke-opacity:1;stroke-miterlimit:10" d="M 1754.804688 1320.726563 L 1811.789063 1376.113281 L 1815.785156 1384.460938 L 1848.71875 1453.144531 L 1889.644531 1550.269531 L 1900.082031 1579.964844 L 1900.082031 1601.632813 L 1837.480469 1755.75 L 1809.347656 1792.238281"/><path style="fill:none;stroke-width:.5625;stroke-linecap:round;stroke-linejoin:round;stroke:#7f7f7f;stroke-opacity:1;stroke-miterlimit:10" d="M 1837.480469 1755.75 L 1857.535156 1792.675781"/><path style="fill:none;stroke-width:.5625;stroke-linecap:round;stroke-linejoin:round;stroke:#7f7f7f;stroke-opacity:1;stroke-miterlimit:10" d="M 1151.355469 2049.8125 L 1237.007813 2020.828125"/><path style="fill:none;stroke-width:.5625;stroke-linecap:round;stroke-linejoin:round;stroke:#7f7f7f;stroke-opacity:1;stroke-miterlimit:10" d="M 1111.90625 1754.144531 L 1033 1769.996094"/><path style="fill:none;stroke-width:.5625;stroke-linecap:round;stroke-linejoin:round;stroke:#7f7f7f;stroke-opacity:1;stroke-miterlimit:10" d="M 1027.589844 1746.371094 L 956.703125 1789.167969 L 933.488281 1803.851563 L 921.679688 1804.71875 L 892.273438 1831.3125 L 819.378906 1881.449219"/><path style="fill:none;stroke-width:.5625;stroke-linecap:round;stroke-linejoin:round;stroke:#7f7f7f;stroke-opacity:1;stroke-miterlimit:10" d="M 1249.515625 2087.363281 L 1188.203125 2101.90625 L 1179.429688 2114.089844 L 1103.867188 2218.878906"/><path style="fill:none;stroke-width:.5625;stroke-linecap:round;stroke-linejoin:round;stroke:#7f7f7f;stroke-opacity:1;stroke-miterlimit:10" d="M 1103.867188 2218.878906 L 1045.285156 2282.285156 L 949.769531 2364.152344 L 838.203125 2454.828125 L 795.652344 2503.007813 L 749.105469 2566.414063"/><path style="fill:none;stroke-width:.5625;stroke-linecap:round;stroke-linejoin:round;stroke:#7f7f7f;stroke-opacity:1;stroke-miterlimit:10" d="M 1445.792969 1769.34375 L 1328.441406 1714.691406 L 1257.984375 1697.15625 L 1202.867188 1678.992188 L 1102.699219 1661.671875 L 1008.621094 1645.628906"/><path style="fill:none;stroke-width:.5625;stroke-linecap:round;stroke-linejoin:round;stroke:#7f7f7f;stroke-opacity:1;stroke-miterlimit:10" d="M 1111.578125 1402.898438 L 1077.847656 1425.246094 L 1034.949219 1476.394531 L 1034.582031 1591.113281"/><path style="fill:none;stroke-width:.5625;stroke-linecap:round;stroke-linejoin:round;stroke:#7f7f7f;stroke-opacity:1;stroke-miterlimit:10" d="M 1219.453125 1443.519531 L 1310.148438 1362.464844"/><path style="fill:none;stroke-width:.5625;stroke-linecap:round;stroke-linejoin:round;stroke:#7f7f7f;stroke-opacity:1;stroke-miterlimit:10" d="M 1333.710938 1452.222656 L 1310.148438 1362.464844 L 1293.292969 1285.40625"/><path style="fill:none;stroke-width:.5625;stroke-linecap:round;stroke-linejoin:round;stroke:#7f7f7f;stroke-opacity:1;stroke-miterlimit:10" d="M 843.453125 1112.03125 L 943.558594 1145.316406 L 1020.535156 1174.734375 L 1028.386719 1182.050781 L 1078.277344 1192.84375 L 1088.324219 1201.003906 L 1144.753906 1210.546875 L 1165.363281 1211.363281 L 1177.5625 1211.824219 L 1210.351563 1208.453125 L 1252.367188 1204.128906 L 1332.664063 1215.113281 L 1408.984375 1233.0625 L 1420.097656 1254.351563"/><path style="fill:none;stroke-width:.5625;stroke-linecap:round;stroke-linejoin:round;stroke:#7f7f7f;stroke-opacity:1;stroke-miterlimit:10" d="M 712.976563 928.246094 L 736.515625 962.535156 L 843.453125 1112.03125 L 967.117188 1283.09375 L 982.394531 1299.734375 L 987.070313 1298.945313 L 1019.671875 1294.078125 L 1063.265625 1306.722656"/><path style="fill:none;stroke-width:.5625;stroke-linecap:round;stroke-linejoin:round;stroke:#7f7f7f;stroke-opacity:1;stroke-miterlimit:10" d="M 1220.070313 2667.503906 L 1213.589844 2813.152344 L 1143.867188 3360"/><path style="fill:none;stroke-width:.5625;stroke-linecap:round;stroke-linejoin:round;stroke:#7f7f7f;stroke-opacity:1;stroke-miterlimit:10" d="M 617.9375 768.4375 L 551.292969 784.402344 L 108.648438 894.855469 L 0 921.960938"/><path style="fill:none;stroke-width:.5625;stroke-linecap:round;stroke-linejoin:round;stroke:#7f7f7f;stroke-opacity:1;stroke-miterlimit:10" d="M 617.9375 768.4375 L 591.195313 763.082031 L 572.496094 743.285156 L 537.84375 686.074219 L 483.402344 629.976563 L 402.550781 554.628906 L 327.746094 493.582031 L 196.839844 406.675781 L 146.253906 354.4375 L 86.851563 290.074219 L 36.796875 252.140625 L 1.058594 236.746094"/><path style="fill:none;stroke-width:.5625;stroke-linecap:round;stroke-linejoin:round;stroke:#7f7f7f;stroke-opacity:1;stroke-miterlimit:10" d="M 1094.558594 1350.554688 L 1064.476563 1349.058594 L 1058.121094 1348.542969"/><path style="fill:none;stroke-width:.5625;stroke-linecap:round;stroke-linejoin:round;stroke:#7f7f7f;stroke-opacity:1;stroke-miterlimit:10" d="M 1074.542969 1305.089844 L 1074.566406 1299.789063 L 1074.933594 1295.492188 L 1075.917969 1280.863281 L 1077.640625 1261.828125 L 1088.324219 1201.003906"/><path style="fill:none;stroke-width:.5625;stroke-linecap:round;stroke-linejoin:round;stroke:#7f7f7f;stroke-opacity:1;stroke-miterlimit:10" d="M 1111.90625 1754.144531 L 1102.699219 1661.671875"/><path style="fill:none;stroke-width:.5625;stroke-linecap:round;stroke-linejoin:round;stroke:#7f7f7f;stroke-opacity:1;stroke-miterlimit:10" d="M 998.121094 1622.816406 L 980.242188 1644.023438 L 975.769531 1654.957031 L 968.0625 1666.730469 L 961.171875 1672.792969"/><path style="fill:none;stroke-width:.5625;stroke-linecap:round;stroke-linejoin:round;stroke:#7f7f7f;stroke-opacity:1;stroke-miterlimit:10" d="M 1137.25 1300.957031 L 1144.753906 1210.546875"/><path style="fill:none;stroke-width:.5625;stroke-linecap:round;stroke-linejoin:round;stroke:#7f7f7f;stroke-opacity:1;stroke-miterlimit:10" d="M 780.726563 1677.25 L 790.097656 1583.988281 L 797.292969 1491.539063"/><path style="fill:none;stroke-width:.5625;stroke-linecap:round;stroke-linejoin:round;stroke:#7f7f7f;stroke-opacity:1;stroke-miterlimit:10" d="M 790.097656 1583.988281 L 873.203125 1568.542969"/><path style="fill:none;stroke-width:.5625;stroke-linecap:round;stroke-linejoin:round;stroke:#7f7f7f;stroke-opacity:1;stroke-miterlimit:10" d="M 1608.582031 1271.699219 L 1690.582031 1282.792969 L 1717.894531 1296.5 L 1754.804688 1320.726563"/><path style="fill:none;stroke-width:.5625;stroke-linecap:round;stroke-linejoin:round;stroke:#7f7f7f;stroke-opacity:1;stroke-miterlimit:10" d="M 1328.441406 1714.691406 L 1321.386719 1615.285156 L 1290.667969 1575.667969 L 1265.324219 1526.535156 L 1250.601563 1498.011719 L 1219.453125 1443.519531 L 1152.035156 1372.089844 L 1106.082031 1372.089844"/><path style="fill:none;stroke-width:.5625;stroke-linecap:round;stroke-linejoin:round;stroke:#7f7f7f;stroke-opacity:1;stroke-miterlimit:10" d="M 1151.398438 1537.464844 L 1142.664063 1508.640625 L 1111.578125 1402.898438 L 1106.082031 1372.089844 L 1094.558594 1350.554688"/><path style="fill:none;stroke-width:.5625;stroke-linecap:round;stroke-linejoin:round;stroke:#7f7f7f;stroke-opacity:1;stroke-miterlimit:10" d="M 984.28125 1611.992188 L 907.222656 1381.714844 L 872.425781 1351.914063 L 826.925781 1268.109375 L 794.339844 1171.09375 L 778.203125 1138.597656 L 774.863281 1131.855469 L 756.835938 1092.78125 L 735.65625 1046.3125 L 718.101563 968.707031 L 712.976563 928.246094"/><path style="fill:none;stroke-width:.5625;stroke-linecap:round;stroke-linejoin:round;stroke:#7f7f7f;stroke-opacity:1;stroke-miterlimit:10" d="M 819.378906 1881.449219 L 770.78125 1820.761719"/><path style="fill:none;stroke-width:.5625;stroke-linecap:round;stroke-linejoin:round;stroke:#7f7f7f;stroke-opacity:1;stroke-miterlimit:10" d="M 1013.335938 1261.613281 L 1031.09375 1236.1875 L 1033.351563 1226.941406 L 1028.386719 1182.050781"/><path style="fill:none;stroke-width:.5625;stroke-linecap:round;stroke-linejoin:round;stroke:#7f7f7f;stroke-opacity:1;stroke-miterlimit:10" d="M 1058.121094 1348.542969 L 1059.289063 1334.890625 L 1060.539063 1323.335938 L 1061.195313 1318.769531 L 1063.265625 1306.722656"/><path style="fill:none;stroke-width:.5625;stroke-linecap:round;stroke-linejoin:round;stroke:#7f7f7f;stroke-opacity:1;stroke-miterlimit:10" d="M 1078.277344 1192.84375 L 1084.160156 1179.738281 L 1093.59375 1092.644531 L 1111.25 1036.550781"/><path style="fill:none;stroke-width:.5625;stroke-linecap:round;stroke-linejoin:round;stroke:#7f7f7f;stroke-opacity:1;stroke-miterlimit:10" d="M 1111.25 1036.550781 L 1109.566406 931.101563 L 1123.367188 822.25 L 1156.75 625.574219 L 1165.445313 566.074219 L 1174.160156 431.828125 L 1184.328125 333.117188 L 1188.675781 232.234375 L 1200.28125 100.890625 L 1216.878906 0"/><path style="fill:none;stroke-width:.5625;stroke-linecap:round;stroke-linejoin:round;stroke:#7f7f7f;stroke-opacity:1;stroke-miterlimit:10" d="M 1577.332031 1766.082031 L 1554.425781 1926.804688 L 1543.4375 2000.488281 L 1539.027344 2051.089844 L 1486.226563 2135.785156 L 1434.535156 2220.484375 L 1426.207031 2226.492188 L 1407.035156 2240.277344 L 1356.429688 2275.488281 L 1315.296875 2284.40625"/><path style="fill:none;stroke-width:.5625;stroke-linecap:round;stroke-linejoin:round;stroke:#7f7f7f;stroke-opacity:1;stroke-miterlimit:10" d="M 1304.714844 2330.464844 L 1336.621094 2372.28125 L 1393.832031 2474.597656 L 1409.128906 2500.316406 L 1418.027344 2515.296875 L 1756.15625 2741.972656 L 1861.183594 2810.328125 L 1957.886719 2887 L 2157.957031 3092.082031 L 2346.359375 3310.484375 L 2376 3344.15625"/><path style="fill:none;stroke-width:.5625;stroke-linecap:round;stroke-linejoin:round;stroke:#7f7f7f;stroke-opacity:1;stroke-miterlimit:10" d="M 1336.621094 2372.28125 L 1360.839844 2365.675781 L 1386.121094 2331.578125 L 1426.207031 2226.492188"/><path style="fill:none;stroke-width:.5625;stroke-linecap:round;stroke-linejoin:round;stroke:#7f7f7f;stroke-opacity:1;stroke-miterlimit:10" d="M 907.222656 1381.714844 L 911.324219 1369.804688 L 913.660156 1362.980469 L 924.015625 1350.636719 L 937.855469 1334.105469 L 963.980469 1308.542969 L 968.554688 1306.339844 L 982.394531 1299.734375"/><path style="fill:none;stroke-width:.5625;stroke-linecap:round;stroke-linejoin:round;stroke:#7f7f7f;stroke-opacity:1;stroke-miterlimit:10" d="M 984.34375 1348.351563 L 998.367188 1347.699219 L 1016.023438 1347.808594 L 1058.121094 1348.542969"/><path style="fill:none;stroke-width:.5625;stroke-linecap:round;stroke-linejoin:round;stroke:#7f7f7f;stroke-opacity:1;stroke-miterlimit:10" d="M 617.9375 768.4375 L 712.976563 928.246094"/><path style="fill:none;stroke-width:.5625;stroke-linecap:round;stroke-linejoin:round;stroke:#7f7f7f;stroke-opacity:1;stroke-miterlimit:10" d="M 108.648438 894.855469 L 197.355469 1211.742188 L 259.28125 1472.042969 L 297.171875 1607.234375 L 299.695313 1626.1875 L 314.871094 1638.832031 L 321.207031 1665.261719"/><path style="fill:none;stroke-width:.5625;stroke-linecap:round;stroke-linejoin:round;stroke:#7f7f7f;stroke-opacity:1;stroke-miterlimit:10" d="M 982.394531 1299.734375 L 984.34375 1348.351563 L 988.609375 1365.320313 L 990.105469 1381.335938"/><path style="fill:none;stroke-width:.5625;stroke-linecap:round;stroke-linejoin:round;stroke:#7f7f7f;stroke-opacity:1;stroke-miterlimit:10" d="M 1177.6875 1583.0625 L 1261.058594 1554.730469 L 1251.894531 1532.214844 L 1265.324219 1526.535156"/><path style="fill:none;stroke-width:.5625;stroke-linecap:round;stroke-linejoin:round;stroke:#7f7f7f;stroke-opacity:1;stroke-miterlimit:10" d="M 1063.265625 1306.722656 L 1074.542969 1305.089844 L 1096.855469 1303.566406 L 1137.25 1300.957031 L 1293.292969 1285.40625 L 1420.097656 1254.351563 L 1608.582031 1271.699219"/><path style="fill:none;stroke-width:1.875;stroke-linecap:round;stroke-linejoin:round;stroke:#4d4d4d;stroke-opacity:1;stroke-miterlimit:10" d="M 1608.582031 1271.699219 L 1593.183594 1300.820313 L 1565.582031 1328.421875 L 1470.128906 1382.097656 L 1439.394531 1399.390625 L 1424.28125 1406.949219 L 1333.710938 1452.222656 L 1250.601563 1498.011719 L 1205.492188 1515.601563 L 1153.324219 1536.8125 L 1151.398438 1537.464844"/><path style="fill:none;stroke-width:1.875;stroke-linecap:round;stroke-linejoin:round;stroke:#4d4d4d;stroke-opacity:1;stroke-miterlimit:10" d="M 1283.574219 2273.339844 L 1188.203125 2101.90625 L 1180.925781 2088.828125 L 1151.355469 2049.8125 L 1098.25 1979.6875 L 1062.140625 1897.003906 L 1033 1769.996094 L 1027.589844 1746.371094 L 1008.621094 1645.628906 L 998.121094 1622.816406 L 984.28125 1611.992188"/><path style="fill:none;stroke-width:1.875;stroke-linecap:round;stroke-linejoin:round;stroke:#4d4d4d;stroke-opacity:1;stroke-miterlimit:10" d="M 893.175781 1661.316406 L 889.320313 1680.570313 L 868.570313 1701.234375 L 857.457031 1709.199219 L 785.6875 1801.59375 L 783.269531 1804.691406 L 772.175781 1815.296875 L 770.78125 1820.761719 L 723.414063 1862.5"/><path style="fill:none;stroke-width:1.875;stroke-linecap:round;stroke-linejoin:round;stroke:#4d4d4d;stroke-opacity:1;stroke-miterlimit:10" d="M 1295.691406 2356.921875 L 1283.574219 2273.339844 L 1280.457031 2251.777344 L 1249.515625 2087.363281 L 1237.007813 2020.828125 L 1232.292969 1995.730469 L 1202.867188 1678.992188 L 1180.882813 1591.003906 L 1177.6875 1583.0625 L 1165.609375 1568.488281 L 1158.164063 1560.414063 L 1151.398438 1537.464844"/><path style="fill:none;stroke-width:1.875;stroke-linecap:round;stroke-linejoin:round;stroke:#4d4d4d;stroke-opacity:1;stroke-miterlimit:10" d="M 1151.355469 2049.8125 L 1237.007813 2020.828125"/><path style="fill:none;stroke-width:1.875;stroke-linecap:round;stroke-linejoin:round;stroke:#4d4d4d;stroke-opacity:1;stroke-miterlimit:10" d="M 1111.90625 1754.144531 L 1033 1769.996094"/><path style="fill:none;stroke-width:1.875;stroke-linecap:round;stroke-linejoin:round;stroke:#4d4d4d;stroke-opacity:1;stroke-miterlimit:10" d="M 1027.589844 1746.371094 L 956.703125 1789.167969 L 933.488281 1803.851563 L 921.679688 1804.71875 L 892.273438 1831.3125 L 819.378906 1881.449219"/><path style="fill:none;stroke-width:1.875;stroke-linecap:round;stroke-linejoin:round;stroke:#4d4d4d;stroke-opacity:1;stroke-miterlimit:10" d="M 1249.515625 2087.363281 L 1188.203125 2101.90625 L 1179.429688 2114.089844 L 1103.867188 2218.878906"/><path style="fill:none;stroke-width:1.875;stroke-linecap:round;stroke-linejoin:round;stroke:#4d4d4d;stroke-opacity:1;stroke-miterlimit:10" d="M 1445.792969 1769.34375 L 1328.441406 1714.691406 L 1257.984375 1697.15625 L 1202.867188 1678.992188 L 1102.699219 1661.671875 L 1008.621094 1645.628906"/><path style="fill:none;stroke-width:1.875;stroke-linecap:round;stroke-linejoin:round;stroke:#4d4d4d;stroke-opacity:1;stroke-miterlimit:10" d="M 1111.578125 1402.898438 L 1077.847656 1425.246094 L 1034.949219 1476.394531 L 1034.582031 1591.113281"/><path style="fill:none;stroke-width:1.875;stroke-linecap:round;stroke-linejoin:round;stroke:#4d4d4d;stroke-opacity:1;stroke-miterlimit:10" d="M 1219.453125 1443.519531 L 1310.148438 1362.464844"/><path style="fill:none;stroke-width:1.875;stroke-linecap:round;stroke-linejoin:round;stroke:#4d4d4d;stroke-opacity:1;stroke-miterlimit:10" d="M 1333.710938 1452.222656 L 1310.148438 1362.464844 L 1293.292969 1285.40625"/><path style="fill:none;stroke-width:1.875;stroke-linecap:round;stroke-linejoin:round;stroke:#4d4d4d;stroke-opacity:1;stroke-miterlimit:10" d="M 843.453125 1112.03125 L 943.558594 1145.316406 L 1020.535156 1174.734375 L 1028.386719 1182.050781 L 1078.277344 1192.84375 L 1088.324219 1201.003906 L 1144.753906 1210.546875 L 1165.363281 1211.363281 L 1177.5625 1211.824219 L 1210.351563 1208.453125 L 1252.367188 1204.128906 L 1332.664063 1215.113281 L 1408.984375 1233.0625 L 1420.097656 1254.351563"/><path style="fill:none;stroke-width:1.875;stroke-linecap:round;stroke-linejoin:round;stroke:#4d4d4d;stroke-opacity:1;stroke-miterlimit:10" d="M 712.976563 928.246094 L 736.515625 962.535156 L 843.453125 1112.03125 L 967.117188 1283.09375 L 982.394531 1299.734375 L 987.070313 1298.945313 L 1019.671875 1294.078125 L 1063.265625 1306.722656"/><path style="fill:none;stroke-width:1.875;stroke-linecap:round;stroke-linejoin:round;stroke:#4d4d4d;stroke-opacity:1;stroke-miterlimit:10" d="M 1094.558594 1350.554688 L 1064.476563 1349.058594 L 1058.121094 1348.542969"/><path style="fill:none;stroke-width:1.875;stroke-linecap:round;stroke-linejoin:round;stroke:#4d4d4d;stroke-opacity:1;stroke-miterlimit:10" d="M 1074.542969 1305.089844 L 1074.566406 1299.789063 L 1074.933594 1295.492188 L 1075.917969 1280.863281 L 1077.640625 1261.828125 L 1088.324219 1201.003906"/><path style="fill:none;stroke-width:1.875;stroke-linecap:round;stroke-linejoin:round;stroke:#4d4d4d;stroke-opacity:1;stroke-miterlimit:10" d="M 1111.90625 1754.144531 L 1102.699219 1661.671875"/><path style="fill:none;stroke-width:1.875;stroke-linecap:round;stroke-linejoin:round;stroke:#4d4d4d;stroke-opacity:1;stroke-miterlimit:10" d="M 998.121094 1622.816406 L 980.242188 1644.023438 L 975.769531 1654.957031 L 968.0625 1666.730469 L 961.171875 1672.792969"/><path style="fill:none;stroke-width:1.875;stroke-linecap:round;stroke-linejoin:round;stroke:#4d4d4d;stroke-opacity:1;stroke-miterlimit:10" d="M 1137.25 1300.957031 L 1144.753906 1210.546875"/><path style="fill:none;stroke-width:1.875;stroke-linecap:round;stroke-linejoin:round;stroke:#4d4d4d;stroke-opacity:1;stroke-miterlimit:10" d="M 780.726563 1677.25 L 790.097656 1583.988281 L 797.292969 1491.539063"/><path style="fill:none;stroke-width:1.875;stroke-linecap:round;stroke-linejoin:round;stroke:#4d4d4d;stroke-opacity:1;stroke-miterlimit:10" d="M 790.097656 1583.988281 L 873.203125 1568.542969"/><path style="fill:none;stroke-width:1.875;stroke-linecap:round;stroke-linejoin:round;stroke:#4d4d4d;stroke-opacity:1;stroke-miterlimit:10" d="M 2131.8125 538.121094 L 2142.371094 518.082031 L 2212.316406 398.191406 L 2303.359375 237.210938 L 2376 125.035156"/><path style="fill:none;stroke-width:1.875;stroke-linecap:round;stroke-linejoin:round;stroke:#4d4d4d;stroke-opacity:1;stroke-miterlimit:10" d="M 1608.582031 1271.699219 L 1690.582031 1282.792969 L 1717.894531 1296.5 L 1754.804688 1320.726563"/><path style="fill:none;stroke-width:1.875;stroke-linecap:round;stroke-linejoin:round;stroke:#4d4d4d;stroke-opacity:1;stroke-miterlimit:10" d="M 1151.398438 1537.464844 L 1139.628906 1546.492188 L 1113.792969 1566.3125 L 1078.890625 1576.238281 L 1034.582031 1591.113281 L 1018.792969 1596.140625 L 1003.824219 1602.613281 L 984.28125 1611.992188"/><path style="fill:none;stroke-width:1.875;stroke-linecap:round;stroke-linejoin:round;stroke:#4d4d4d;stroke-opacity:1;stroke-miterlimit:10" d="M 1328.441406 1714.691406 L 1321.386719 1615.285156 L 1290.667969 1575.667969 L 1265.324219 1526.535156 L 1250.601563 1498.011719 L 1219.453125 1443.519531 L 1152.035156 1372.089844 L 1106.082031 1372.089844"/><path style="fill:none;stroke-width:1.875;stroke-linecap:round;stroke-linejoin:round;stroke:#4d4d4d;stroke-opacity:1;stroke-miterlimit:10" d="M 780.726563 1677.25 L 723.476563 1680.515625 L 654.085938 1683.289063 L 600.792969 1685.246094 L 321.207031 1665.261719 L 0 1653.660156"/><path style="fill:none;stroke-width:1.875;stroke-linecap:round;stroke-linejoin:round;stroke:#4d4d4d;stroke-opacity:1;stroke-miterlimit:10" d="M 1151.398438 1537.464844 L 1142.664063 1508.640625 L 1111.578125 1402.898438 L 1106.082031 1372.089844 L 1094.558594 1350.554688"/><path style="fill:none;stroke-width:1.875;stroke-linecap:round;stroke-linejoin:round;stroke:#4d4d4d;stroke-opacity:1;stroke-miterlimit:10" d="M 984.28125 1611.992188 L 907.222656 1381.714844 L 872.425781 1351.914063 L 826.925781 1268.109375 L 794.339844 1171.09375 L 778.203125 1138.597656 L 774.863281 1131.855469 L 756.835938 1092.78125 L 735.65625 1046.3125 L 718.101563 968.707031 L 712.976563 928.246094"/><path style="fill:none;stroke-width:1.875;stroke-linecap:round;stroke-linejoin:round;stroke:#4d4d4d;stroke-opacity:1;stroke-miterlimit:10" d="M 984.28125 1611.992188 L 969.066406 1620.152344 L 931.644531 1640.273438 L 893.175781 1661.316406 L 845.605469 1673.582031 L 780.726563 1677.25"/><path style="fill:none;stroke-width:1.875;stroke-linecap:round;stroke-linejoin:round;stroke:#4d4d4d;stroke-opacity:1;stroke-miterlimit:10" d="M 819.378906 1881.449219 L 770.78125 1820.761719"/><path style="fill:none;stroke-width:1.875;stroke-linecap:round;stroke-linejoin:round;stroke:#4d4d4d;stroke-opacity:1;stroke-miterlimit:10" d="M 1058.121094 1348.542969 L 1059.289063 1334.890625 L 1060.539063 1323.335938 L 1061.195313 1318.769531 L 1063.265625 1306.722656"/><path style="fill:none;stroke-width:1.875;stroke-linecap:round;stroke-linejoin:round;stroke:#4d4d4d;stroke-opacity:1;stroke-miterlimit:10" d="M 1078.277344 1192.84375 L 1084.160156 1179.738281 L 1093.59375 1092.644531 L 1111.25 1036.550781"/><path style="fill:none;stroke-width:1.875;stroke-linecap:round;stroke-linejoin:round;stroke:#4d4d4d;stroke-opacity:1;stroke-miterlimit:10" d="M 907.222656 1381.714844 L 911.324219 1369.804688 L 913.660156 1362.980469 L 924.015625 1350.636719 L 937.855469 1334.105469 L 963.980469 1308.542969 L 968.554688 1306.339844 L 982.394531 1299.734375"/><path style="fill:none;stroke-width:1.875;stroke-linecap:round;stroke-linejoin:round;stroke:#4d4d4d;stroke-opacity:1;stroke-miterlimit:10" d="M 984.34375 1348.351563 L 998.367188 1347.699219 L 1016.023438 1347.808594 L 1058.121094 1348.542969"/><path style="fill:none;stroke-width:1.875;stroke-linecap:round;stroke-linejoin:round;stroke:#4d4d4d;stroke-opacity:1;stroke-miterlimit:10" d="M 982.394531 1299.734375 L 984.34375 1348.351563 L 988.609375 1365.320313 L 990.105469 1381.335938"/><path style="fill:none;stroke-width:1.875;stroke-linecap:round;stroke-linejoin:round;stroke:#4d4d4d;stroke-opacity:1;stroke-miterlimit:10" d="M 1063.265625 1306.722656 L 1074.542969 1305.089844 L 1096.855469 1303.566406 L 1137.25 1300.957031 L 1293.292969 1285.40625 L 1420.097656 1254.351563 L 1608.582031 1271.699219"/><path style="fill:none;stroke-width:1.875;stroke-linecap:round;stroke-linejoin:round;stroke:#4d4d4d;stroke-opacity:1;stroke-miterlimit:10" d="M 2117.847656 562.242188 L 2131.8125 538.121094"/><path style="fill:none;stroke-width:1.875;stroke-linecap:round;stroke-linejoin:round;stroke:#4d4d4d;stroke-opacity:1;stroke-miterlimit:10" d="M 1608.582031 1271.699219 L 1642.949219 1226.753906 L 1752.671875 1083.210938 L 1808.179688 995.488281 L 1841.480469 938.878906 L 1881.464844 881.148438 L 1955.835938 788.996094 L 2013.578125 721.261719 L 2056.867188 666.851563 L 2117.847656 562.242188"/><path style="fill:none;stroke-width:3.75;stroke-linecap:round;stroke-linejoin:round;stroke:#333;stroke-opacity:1;stroke-miterlimit:10" d="M 1608.582031 1271.699219 L 1593.183594 1300.820313 L 1565.582031 1328.421875 L 1470.128906 1382.097656 L 1439.394531 1399.390625 L 1424.28125 1406.949219 L 1333.710938 1452.222656 L 1250.601563 1498.011719 L 1205.492188 1515.601563 L 1153.324219 1536.8125 L 1151.398438 1537.464844"/><path style="fill:none;stroke-width:3.75;stroke-linecap:round;stroke-linejoin:round;stroke:#333;stroke-opacity:1;stroke-miterlimit:10" d="M 2131.8125 538.121094 L 2142.371094 518.082031 L 2212.316406 398.191406 L 2303.359375 237.210938 L 2376 125.035156"/><path style="fill:none;stroke-width:3.75;stroke-linecap:round;stroke-linejoin:round;stroke:#333;stroke-opacity:1;stroke-miterlimit:10" d="M 1151.398438 1537.464844 L 1139.628906 1546.492188 L 1113.792969 1566.3125 L 1078.890625 1576.238281 L 1034.582031 1591.113281 L 1018.792969 1596.140625 L 1003.824219 1602.613281 L 984.28125 1611.992188"/><path style="fill:none;stroke-width:3.75;stroke-linecap:round;stroke-linejoin:round;stroke:#333;stroke-opacity:1;stroke-miterlimit:10" d="M 780.726563 1677.25 L 723.476563 1680.515625 L 654.085938 1683.289063 L 600.792969 1685.246094 L 321.207031 1665.261719 L 0 1653.660156"/><path style="fill:none;stroke-width:3.75;stroke-linecap:round;stroke-linejoin:round;stroke:#333;stroke-opacity:1;stroke-miterlimit:10" d="M 984.28125 1611.992188 L 969.066406 1620.152344 L 931.644531 1640.273438 L 893.175781 1661.316406 L 845.605469 1673.582031 L 780.726563 1677.25"/><path style="fill:none;stroke-width:3.75;stroke-linecap:round;stroke-linejoin:round;stroke:#333;stroke-opacity:1;stroke-miterlimit:10" d="M 2117.847656 562.242188 L 2131.8125 538.121094"/><path style="fill:none;stroke-width:3.75;stroke-linecap:round;stroke-linejoin:round;stroke:#333;stroke-opacity:1;stroke-miterlimit:10" d="M 1608.582031 1271.699219 L 1642.949219 1226.753906 L 1752.671875 1083.210938 L 1808.179688 995.488281 L 1841.480469 938.878906 L 1881.464844 881.148438 L 1955.835938 788.996094 L 2013.578125 721.261719 L 2056.867188 666.851563 L 2117.847656 562.242188"/><path style="stroke:none;fill-rule:evenodd;fill:#b3b3b3;fill-opacity:1" d="M 631.523438 2276.757813 L 631.816406 2277.292969 L 632.082031 2277.835938 L 632.316406 2278.390625 L 632.515625 2278.957031 L 632.6875 2279.53125 L 632.828125 2280.117188 L 632.933594 2280.710938 L 633.011719 2281.316406 L 633.058594 2281.933594 L 633.074219 2282.558594 L 633.058594 2283.183594 L 633.011719 2283.796875 L 632.933594 2284.402344 L 632.828125 2285 L 632.6875 2285.585938 L 632.515625 2286.160156 L 632.316406 2286.730469 L 632.082031 2287.285156 L 631.816406 2287.835938 L 631.523438 2288.371094 L 631.203125 2288.890625 L 630.859375 2289.390625 L 630.492188 2289.863281 L 630.101563 2290.316406 L 629.691406 2290.75 L 629.257813 2291.160156 L 628.804688 2291.546875 L 628.328125 2291.910156 L 627.828125 2292.253906 L 627.304688 2292.578125 L 626.769531 2292.871094 L 626.222656 2293.136719 L 625.667969 2293.367188 L 625.101563 2293.570313 L 624.527344 2293.738281 L 623.941406 2293.878906 L 623.347656 2293.988281 L 622.742188 2294.066406 L 622.128906 2294.113281 L 621.503906 2294.128906 L 620.878906 2294.113281 L 620.261719 2294.066406 L 619.65625 2293.988281 L 619.0625 2293.878906 L 618.476563 2293.738281 L 617.898438 2293.570313 L 617.332031 2293.367188 L 616.773438 2293.136719 L 616.226563 2292.871094 L 615.6875 2292.578125 L 615.167969 2292.253906 L 614.671875 2291.910156 L 614.195313 2291.546875 L 613.742188 2291.160156 L 613.3125 2290.75 L 612.902344 2290.316406 L 612.515625 2289.863281 L 612.148438 2289.390625 L 611.804688 2288.890625 L 611.484375 2288.371094 L 611.1875 2287.835938 L 610.925781 2287.285156 L 610.691406 2286.730469 L 610.492188 2286.160156 L 610.320313 2285.585938 L 610.179688 2285 L 610.070313 2284.402344 L 609.996094 2283.796875 L 609.949219 2283.183594 L 609.933594 2282.558594 L 609.949219 2281.933594 L 609.996094 2281.316406 L 610.070313 2280.710938 L 610.179688 2280.117188 L 610.320313 2279.53125 L 610.492188 2278.957031 L 610.691406 2278.390625 L 610.925781 2277.835938 L 611.1875 2277.292969 L 611.484375 2276.757813 L 611.804688 2276.234375 L 612.148438 2275.734375 L 612.515625 2275.257813 L 612.902344 2274.800781 L 613.3125 2274.367188 L 613.742188 2273.957031 L 614.195313 2273.570313 L 614.671875 2273.203125 L 615.167969 2272.859375 L 615.6875 2272.539063 L 616.226563 2272.242188 L 616.773438 2271.976563 L 617.332031 2271.746094 L 617.898438 2271.542969 L 618.476563 2271.375 L 619.0625 2271.234375 L 619.65625 2271.125 L 620.261719 2271.046875 L 620.878906 2271 L 621.503906 2270.984375 L 622.128906 2271 L 622.742188 2271.046875 L 623.347656 2271.125 L 623.941406 2271.234375 L 624.527344 2271.375 L 625.101563 2271.542969 L 625.667969 2271.746094 L 626.222656 2271.976563 L 626.769531 2272.242188 L 627.304688 2272.539063 L 627.828125 2272.859375 L 628.328125 2273.203125 L 628.804688 2273.570313 L 629.257813 2273.957031 L 629.691406 2274.367188 L 630.101563 2274.800781 L 630.492188 2275.257813 L 630.859375 2275.734375 L 631.203125 2276.234375 Z M 631.523438 2276.757813"/></g></svg>